<?xml version="1.0" standalone="no"?>
<!DOCTYPE svg PUBLIC "-//W3C//DTD SVG 1.1//EN" "http://www.w3.org/Graphics/SVG/1.1/DTD/svg11.dtd" >
<svg>
<metadata>
Created by FontForge 20090914 at Mon Feb 11 00:01:49 2013
 By www-data
</metadata>
<defs>
<font id="icomoon" horiz-adv-x="512" >
  <font-face 
    font-family="icomoon"
    font-weight="400"
    font-stretch="normal"
    units-per-em="512"
    panose-1="2 0 5 3 0 0 0 0 0 0"
    ascent="480"
    descent="-32"
    bbox="-16 -35.998 640 512"
    underline-thickness="0"
    underline-position="0"
    unicode-range="U+E000-U+E384"
  />
<missing-glyph 
 />
    <glyph unicode="&#xe000;" 
d="M512 185l-256 198l-256 -198v81l256 199l256 -199v-81zM448 192v-192h-384v192l192 144z" />
    <glyph unicode="&#xe001;" 
d="M512 185l-256 198l-256 -198v81l256 199l256 -199v-81zM448 192v-192h-128v128h-128v-128h-128v192l192 144z" />
    <glyph unicode="&#xe002;" 
d="M512 176l-96 96v144h-64v-80l-96 96l-256 -256v-16h64v-160h160v96h64v-96h160v160h64v16z" />
    <glyph unicode="&#xe003;" 
d="M448 192v-192h-384v192h64v-128h256v128h64zM512 185l-256 198l-256 -198v81l256 199l256 -199v-81z" />
    <glyph unicode="&#xe004;" 
d="M256 448l-256 -256l48 -48l48 48l32 -192h96v96h64v-96h96l32 192l48 -48l48 48zM256 243c-12.667 0 -23.334 4.33301 -32.001 13s-13 19.334 -13 32.001s4.33301 23.334 13 32.001s19.334 13 32.001 13s23.334 -4.33301 32.001 -13s13 -19.334 13 -32.001
s-4.33301 -23.334 -13 -32.001s-19.334 -13 -32.001 -13z" />
    <glyph unicode="&#xe005;" 
d="M256 480l-256 -192v-96l64 48v-240c0 -8.66699 3.16699 -16.167 9.5 -22.5s13.833 -9.5 22.5 -9.5h320c8.66699 0 16.167 3.16699 22.5 9.5s9.5 13.833 9.5 22.5v240l64 -48v96zM416 0h-160v160h-96v-160h-64v264l160 120l160 -120v-264zM288 256h64v-64h-64v64z" />
    <glyph unicode="&#xe006;" 
d="M128 416l-128 -160h135l128 160h-135zM0 224h128v-224h-128v224zM320 416l-160 -192v-224h128v96c0 8.66699 3.16699 16.167 9.5 22.5s13.833 9.5 22.5 9.5s16.167 -3.16699 22.5 -9.5s9.5 -13.833 9.5 -22.5v-96h128v224z" />
    <glyph unicode="&#xe007;" 
d="M0 -32h256v512h-256v-512zM160 416h64v-64h-64v64zM160 288h64v-64h-64v64zM160 160h64v-64h-64v64zM32 416h64v-64h-64v64zM32 288h64v-64h-64v64zM32 160h64v-64h-64v64zM288 320h224v-32h-224v32zM288 -32h64v128h96v-128h64v288h-224v-288z" />
    <glyph unicode="&#xe008;" 
d="M448 352l0.000976562 64.001h-448v-352c0 -8.66699 3.16699 -16.167 9.5 -22.5s13.833 -9.5 22.5 -9.5h432c13.333 0 24.666 4.66699 33.999 14s14 20.666 14 33.999v272h-64zM416.001 64.001h-384v320h384v-320zM64.001 320.001h320v-32h-320v32zM256.001 256.001h128
v-32h-128v32zM256.001 192.001h128v-32h-128v32zM256.001 128.001h96v-32h-96v32zM64.001 256.001h160v-160h-160v160z" />
    <glyph unicode="&#xe009;" 
d="M432 480c22 0 40.833 -7.83301 56.5 -23.5s23.5 -34.5 23.5 -56.5c0 -18 -5.33301 -34 -16 -48l-32 -32l-112 112l32 32c14 10.667 30 16 48 16zM32 112l-32 -144l144 32l296 296l-112 112zM358 298l-224 -224l-28 28l224 224z" />
    <glyph unicode="&#xe00a;" 
d="M192 160l64 32l224 224l-32 32l-224 -224zM145 46c-8 16.667 -17 30 -27 40s-23.333 19 -40 27l50 136l64 39l192 192h-96l-192 -192l-96 -320l320 96l192 192v96l-192 -192l-39 -64z" />
    <glyph unicode="&#xe00b;" 
d="M424 312l-216 -216h-80v80l216 216zM451 339l-80.002 80.002l28 28c4.66699 4.66699 10.334 7 17.001 7s12.334 -2.33301 17.001 -7l46 -46c4.66699 -4.66699 7 -10.334 7 -17.001s-2.33301 -12.334 -7 -17.001zM383.998 198.002l0.000976562 -166.001h-320v320h176
l64 64h-256c-13.333 0 -24.666 -4.66699 -33.999 -14s-14 -20.666 -14 -33.999v-352c0 -13.333 4.66699 -24.666 14 -33.999s20.666 -14 33.999 -14h352c13.333 0 24.666 4.66699 33.999 14s14 20.666 14 33.999v240z" />
    <glyph unicode="&#xe00c;" 
d="M320 416l-256 -256l-64 -192l192 64l256 256zM512 389c0 25.333 -8.83301 46.833 -26.5 64.5s-39.167 26.5 -64.5 26.5c-28 0 -51 -10.667 -69 -32l128 -128c21.333 18 32 41 32 69zM224 0h288v-32h-288v32z" />
    <glyph unicode="&#xe00d;" 
d="M0 -32l32.001 0.000976562l96 160h96c22 0 44.5 13.667 67.5 41s43.833 58.833 62.5 94.5s42.5 74.834 71.5 117.501s57.833 75.667 86.5 99c-53.333 0 -104.833 -11.833 -154.5 -35.5s-92.5 -53.334 -128.5 -89.001s-69.833 -77.334 -101.5 -125.001
s-57.334 -92.667 -77.001 -135s-36.5 -84.833 -50.5 -127.5zM196.001 192.001h-36c4 6.66699 10 16 18 28s22 31.333 42 58s44.5 52.667 73.5 78s59.167 45.333 90.5 60c-9.33301 -8 -21.333 -19 -36 -33s-38.667 -40.667 -72 -80s-60 -76.333 -80 -111z" />
    <glyph unicode="&#xe00e;" 
d="M192 187l6 3.00391l15.5 8c7.66699 4 15.334 7.66699 23.001 11s17 6.66602 28 9.99902s21.167 6 30.5 8s19.166 2.83301 29.499 2.5s19.166 -2.16602 26.499 -5.49902c10.667 16 22.334 35 35.001 57c-28 7.33301 -56.667 9.33301 -86 6l-44 -4l28 15
c11.333 6 30.666 12.833 57.999 20.5s49.666 8.83398 66.999 3.50098l34 61c-19.333 1.33301 -39.333 1 -60 -1l-31 -3c40 23.333 77.667 37 113 41c18.667 30.667 34.334 50.667 47.001 60c-53.333 0 -104.833 -11.833 -154.5 -35.5s-92.5 -53.334 -128.5 -89.001
s-69.833 -77.334 -101.5 -125.001s-57.334 -92.667 -77.001 -135s-36.5 -84.833 -50.5 -127.5h32l96 160c2.66699 -2.66699 6.66699 -5.33398 12 -8.00098s18.833 -4.33398 40.5 -5.00098s46.834 3.66602 75.501 12.999c20.667 6.66699 43.334 25.667 68.001 57
c-28 7.33301 -57 9.33301 -87 6z" />
    <glyph unicode="&#xe00f;" 
d="M480 336l-112 112l32 32l112 -112zM448 304l-16 -175.998c-42.667 0 -93.334 -13.333 -152.001 -40s-106.667 -53.334 -144 -80.001l-56 -40l-27 27l137 136c6 -2 12 -3 18 -3c13.333 0 24.666 4.66699 33.999 14s14 20.666 14 33.999s-4.66699 24.666 -14 33.999
s-20.666 14 -33.999 14s-24.666 -4.66699 -33.999 -14s-14 -20.666 -14 -33.999c0 -6 1 -12 3 -18l-136 -137l-27 27c6.66699 8.66699 15.5 21.167 26.5 37.5s28.167 43.5 51.5 81.5s42.833 78 58.5 120s23.5 79.667 23.5 113l176 16z" />
    <glyph unicode="&#xe010;" 
d="M320 416l16 64h-192l16 -64h160zM320 384h-160l-80 -160l128 -256h16v224c-8.66699 0 -16.167 3.16699 -22.5 9.5s-9.5 13.833 -9.5 22.5v32c0 8.66699 3.16699 16.167 9.5 22.5s13.833 9.5 22.5 9.5h32c8.66699 0 16.167 -3.16699 22.5 -9.5s9.5 -13.833 9.5 -22.5v-32
c0 -8.66699 -3.16699 -16.167 -9.5 -22.5s-13.833 -9.5 -22.5 -9.5v-224h16l128 256z" />
    <glyph unicode="&#xe011;" 
d="M326 402l26 78h-224l26 -78l-74 -178l128 -256h64l128 256zM308 448l-11 -32h-114l-11 32h136zM256 8l-0.00195312 187c9.33301 3.33301 17 9.16602 23 17.499s9 17.5 9 27.5c0 13.333 -4.66699 24.666 -14 33.999s-20.666 14 -33.999 14s-24.666 -4.66699 -33.999 -14
s-14 -20.666 -14 -33.999c0 -10 3 -19.167 9 -27.5s13.667 -14.166 23 -17.499v-187l-109 217l66 159h118l66 -159z" />
    <glyph unicode="&#xe012;" 
d="M469 437c-28 28.667 -56.001 42.999 -84.001 42.999c-20.667 0 -39.667 -8.66699 -57 -26l-248 -246l-80 -208l32 -32l208 80l18 18l228 230c14.667 14 23 29.5 25 46.5s-0.666992 33.333 -8 49s-18.666 30.834 -33.999 45.501zM239.999 93.999l-114 114l201 201
l114 -114z" />
    <glyph unicode="&#xe013;" 
d="M192 384c62 0 114.833 -21.833 158.5 -65.5s65.5 -96.5 65.5 -158.5h-48c0 48.667 -17.167 90.167 -51.5 124.5s-75.833 51.5 -124.5 51.5v48zM192 480c88.667 0 164.167 -31.167 226.5 -93.5s93.5 -137.833 93.5 -226.5h-48c0 36.667 -7 72 -21 106
c-14 32.667 -33.5 61.5 -58.5 86.5s-53.833 44.5 -86.5 58.5c-34 14 -69.333 21 -106 21v48zM287 255c22 -22 32.999 -48.332 32.999 -78.999c-9.33301 -14 -16.666 -31 -21.999 -51s-8.33301 -34 -9 -42s-1 -14.333 -1 -19c-38 0 -75.667 -8 -113 -24s-65 -32 -83 -48
l-28 -24l-7 7l-12 12l142 141h5c8.66699 0 16.167 3.16699 22.5 9.5s9.5 13.833 9.5 22.5s-3.16699 16.167 -9.5 22.5s-13.833 9.5 -22.5 9.5s-16.167 -3.16699 -22.5 -9.5s-9.5 -13.833 -9.5 -22.5v-5l-141 -142l-19 19c4 4 9.33301 10.167 16 18.5s17 22.833 31 43.5
s25.667 45.5 35 74.5s14 58.167 14 87.5c4.66699 0 11 0.333008 19 1s22 3.66699 42 9s37 12.666 51 21.999c30.667 0 57 -11 79 -33z" />
    <glyph unicode="&#xe014;" 
d="M384 320h-56.002c-7.33301 0 -12.166 2.16699 -14.499 6.5s-2.83301 9.83301 -1.5 16.5s3 17.167 5 31.5s3 28.166 3 41.499c0 7.33301 -0.666992 13.333 -2 18c-4 13.333 -11.667 24.333 -23 33s-24.333 13 -39 13s-27.667 -4.33301 -39 -13s-19 -19.667 -23 -33
c-1.33301 -4.66699 -2 -10.667 -2 -18c0 -13.333 1 -27.166 3 -41.499s3.66699 -24.833 5 -31.5s0.833008 -12.167 -1.5 -16.5s-7.16602 -6.5 -14.499 -6.5h-56v-64h64v-248c0 -5.33301 2.66699 -8 8 -8h16c5.33301 -0 8 -2.66699 8 -8v-16c0 -5.33301 2.66699 -8 8 -8h48
c5.33301 0 8 2.66699 8 8v16c0 5.33301 2.66699 8 8 8h16c5.33301 0 8 2.66699 8 8v248h64v64zM287.998 31c-8 -1.33301 -14.833 -4.83301 -20.5 -10.5s-9.16699 -12.5 -10.5 -20.5h-2c-1.33301 8 -4.83301 14.833 -10.5 20.5s-12.5 9.16699 -20.5 10.5v225h64v-225z" />
    <glyph unicode="&#xe015;" 
d="M448 163v1.00293v2c-1.33301 36.667 -12.166 75.167 -32.499 115.5s-42.166 74.333 -65.499 102s-45 50.5 -65 68.5l-29 28c-5.33301 -4 -12.166 -9.83301 -20.499 -17.5s-23.333 -23.334 -45 -47.001s-40.834 -47.334 -57.501 -71.001s-32 -51.834 -46 -84.501
s-21.667 -64 -23 -94v-2v-1v-3v-4c1.33301 -52 20.666 -96.333 57.999 -133s82 -55 134 -55s96.667 18.333 134 55s56.666 81 57.999 133v3.5v3.5zM384 158.003v-1c-0.666992 -34.667 -13.5 -64.167 -38.5 -88.5s-54.833 -36.5 -89.5 -36.5c-6 0 -12 0.333008 -18 1
c35.333 21.333 63.5 50 84.5 86s31.5 75.333 31.5 118c0 10 -0.666992 19.667 -2 29c20 -37.333 30.667 -71.333 32 -102v-1v-1v-2v-2z" />
    <glyph unicode="&#xe016;" 
d="M256 415c-21.333 -20.667 -40.668 -42 -58.001 -64c-55.333 -69.333 -84 -131.333 -86 -186v-2v-1v-2v-2v-1c0.666992 -39.333 15 -72.666 43 -99.999s61.667 -41 101 -41s73 13.667 101 41s42.333 60.666 43 99.999v0v3v2v1v2v0c-2 54.667 -30.667 116.667 -86 186
c-17.333 22 -36.666 43.333 -57.999 64zM255.998 480c5.33301 -4 12.1641 -9.83008 20.4971 -17.4971s23.333 -23.334 45 -47.001s40.834 -47.334 57.501 -71.001s32 -51.834 46 -84.501s21.667 -64 23 -94v-2v-1v-3.5v-3.5c-1.33301 -52 -20.666 -96.333 -57.999 -133
s-82 -55 -134 -55s-96.667 18.333 -134 55s-56.666 81 -57.999 133v4v3v1v2c1.33301 30 8.66602 61.167 21.999 93.5s29.333 61 48 86s37.334 48 56.001 69s34.167 37.167 46.5 48.5s18.833 17 19.5 17zM361.996 168.003l0.00195312 -1.99902v-2v0
c-0.666992 -30.667 -11.834 -56.667 -33.501 -78s-47.834 -32 -78.501 -32c-24 0 -45.667 7 -65 21c4.66699 -0.666992 9 -1 13 -1c39.333 0 73 13.667 101 41s42.333 60.666 43 99.999v0v3v2v1v2v0c-0.666992 9.33301 -2 19 -4 29c15.333 -30 23.333 -57.333 24 -82v0v-1
v-1z" />
    <glyph unicode="&#xe017;" 
d="M512 192v192h-96v32c0 8.66699 -3.16699 16.167 -9.5 22.5s-13.833 9.5 -22.5 9.5h-352c-8.66699 0 -16.167 -3.16699 -22.5 -9.5s-9.5 -13.833 -9.5 -22.5v-96c0 -8.66699 3.16699 -16.167 9.5 -22.5s13.833 -9.5 22.5 -9.5h352c8.66699 0 16.167 3.16699 22.5 9.5
s9.5 13.833 9.5 22.5v32h64v-128h-288v-64h-16c-4.66699 0 -8.5 -1.5 -11.5 -4.5s-4.5 -6.83301 -4.5 -11.5v-160c0 -4.66699 1.5 -8.5 4.5 -11.5s6.83301 -4.5 11.5 -4.5h64c4.66699 0 8.5 1.5 11.5 4.5s4.5 6.83301 4.5 11.5v160c0 4.66699 -1.5 8.5 -4.5 11.5
s-6.83301 4.5 -11.5 4.5h-16v32h288zM384 384h-352v32h352v-32z" />
    <glyph unicode="&#xe018;" 
d="M448 384h-384v-320h384v320zM512 448v-448h-512v448h512zM416 96h-320v64l96 160l132 -160l92 64v-32v-96zM320 304c0 13.333 4.66699 24.666 14 33.999s20.666 14 33.999 14s24.666 -4.66699 33.999 -14s14 -20.666 14 -33.999s-4.66699 -24.666 -14 -33.999
s-20.666 -14 -33.999 -14s-24.666 4.66699 -33.999 14s-14 20.666 -14 33.999z" />
    <glyph unicode="&#xe019;" 
d="M0 416v-416h512v416h-512zM480 32h-448v352h448v-352zM352 304c0 13.333 4.66699 24.666 14 33.999s20.666 14 33.999 14s24.666 -4.66699 33.999 -14s14 -20.666 14 -33.999s-4.66699 -24.666 -14 -33.999s-20.666 -14 -33.999 -14s-24.666 4.66699 -33.999 14
s-14 20.666 -14 33.999zM448 64h-384l96 256l128 -160l64 48z" />
    <glyph unicode="&#xe01a;" 
d="M64 352v-320h448v320h-448zM480 85l-64 107l-73 -60l-55 92l-192 -160v256h384v-235zM128 240c0 13.333 4.66699 24.666 14 33.999s20.666 14 33.999 14s24.666 -4.66699 33.999 -14s14 -20.666 14 -33.999s-4.66699 -24.666 -14 -33.999s-20.666 -14 -33.999 -14
s-24.666 4.66699 -33.999 14s-14 20.666 -14 33.999zM448 416h-448v-320h32v288h416v32z" />
    <glyph unicode="&#xe01b;" 
d="M416 192c-10.667 0 -26.667 -5.33301 -48 -16s-37.333 -16 -48 -16c-6.66699 0 -13.167 6.66699 -19.5 20s-11.833 28 -16.5 44s-12.167 30.667 -22.5 44s-22.833 20 -37.5 20c-33.333 0 -64.5 -16.5 -93.5 -49.5s-51.167 -80.5 -66.5 -142.5h384c0 49.333 -7 80 -21 92
c-3.33301 2.66699 -7 4 -11 4zM0 384v-352h512v352h-512zM480 64h-448v288h448v-288zM352 272c0 13.333 4.66699 24.666 14 33.999s20.666 14 33.999 14s24.666 -4.66699 33.999 -14s14 -20.666 14 -33.999s-4.66699 -24.666 -14 -33.999s-20.666 -14 -33.999 -14
s-24.666 4.66699 -33.999 14s-14 20.666 -14 33.999z" />
    <glyph unicode="&#xe01c;" 
d="M0 384v-320h512v320h-512zM480 160l-96 96l-46 -69l91 -91h-45l-160 160l-192 -160v256h448v-192zM64 272c0 13.333 4.66699 24.666 14 33.999s20.666 14 33.999 14s24.666 -4.66699 33.999 -14s14 -20.666 14 -33.999s-4.66699 -24.666 -14 -33.999
s-20.666 -14 -33.999 -14s-24.666 4.66699 -33.999 14s-14 20.666 -14 33.999z" />
    <glyph unicode="&#xe01d;" 
d="M0 448v-480h512v480h-512zM448 96h-384v288h384v-288zM416 192l-32 64l-64 -64l-96 160l-128 -192v-32h320v64z" />
    <glyph unicode="&#xe01e;" 
d="M256 264c23.333 0 43.333 -8.66699 60 -26s25 -38 25 -62s-8.33301 -44.667 -25 -62s-36.667 -26 -60 -26s-43.333 8.66699 -60 26s-25 38 -25 62s8.33301 44.667 25 62s36.667 26 60 26zM480 384h-95.998l-16 41c-2 6 -5.83301 11.333 -11.5 16s-11.834 7 -18.501 7
h-164c-6.66699 0 -12.834 -2.33301 -18.501 -7s-9.5 -10 -11.5 -16l-16 -41h-96c-8.66699 0 -16.167 -3.16699 -22.5 -9.5s-9.5 -13.833 -9.5 -22.5v-352c0 -8.66699 3.16699 -16.167 9.5 -22.5s13.833 -9.5 22.5 -9.5h448c8.66699 0 16.167 3.16699 22.5 9.5
s9.5 13.833 9.5 22.5v352c0 8.66699 -3.16699 16.167 -9.5 22.5s-13.833 9.5 -22.5 9.5zM256.002 40c-36.667 0 -68 13.333 -94 40s-39 58.667 -39 96s13 69.333 39 96s57.333 40 94 40s68 -13.333 94 -40s39 -58.667 39 -96s-13 -69.333 -39 -96s-57.333 -40 -94 -40z" />
    <glyph unicode="&#xe01f;" 
d="M480 384h-95.998l-16 41c-2 6 -5.83301 11.333 -11.5 16s-11.834 7 -18.501 7h-164c-6.66699 0 -12.834 -2.33301 -18.501 -7s-9.5 -10 -11.5 -16l-16 -41h-96c-8.66699 0 -16.167 -3.16699 -22.5 -9.5s-9.5 -13.833 -9.5 -22.5v-352
c0 -8.66699 3.16699 -16.167 9.5 -22.5s13.833 -9.5 22.5 -9.5h448c8.66699 0 16.167 3.16699 22.5 9.5s9.5 13.833 9.5 22.5v352c0 8.66699 -3.16699 16.167 -9.5 22.5s-13.833 9.5 -22.5 9.5zM448.002 32h-384v288h107l26 64h118l26 -64h107v-288zM256.002 296
c-33.333 0 -61.666 -11.667 -84.999 -35s-35 -51.666 -35 -84.999s11.667 -61.666 35 -84.999s51.666 -35 84.999 -35s61.666 11.667 84.999 35s35 51.666 35 84.999s-11.667 61.666 -35 84.999s-51.666 35 -84.999 35zM256.002 104c-20 0 -37 7 -51 21s-21 31 -21 51
s7 37 21 51s31 21 51 21s37 -7 51 -21s21 -31 21 -51s-7 -37 -21 -51s-31 -21 -51 -21z" />
    <glyph unicode="&#xe020;" 
d="M152 176c0 -28.667 10.167 -53.167 30.5 -73.5s44.833 -30.5 73.5 -30.5s53.167 10.167 73.5 30.5s30.5 44.833 30.5 73.5s-10.167 53.167 -30.5 73.5s-44.833 30.5 -73.5 30.5s-53.167 -10.167 -73.5 -30.5s-30.5 -44.833 -30.5 -73.5zM480 352h-111.998
c-3.33301 14 -6.33301 24.667 -9 32s-7.33398 14.5 -14.001 21.5s-15 10.5 -25 10.5h-128c-10 0 -18.333 -3.5 -25 -10.5s-11.334 -14.167 -14.001 -21.5s-5.66699 -18 -9 -32h-112c-8.66699 0 -16.167 -3.16699 -22.5 -9.5s-9.5 -13.833 -9.5 -22.5v-288
c0 -8.66699 3.16699 -16.167 9.5 -22.5s13.833 -9.5 22.5 -9.5h448c8.66699 0 16.167 3.16699 22.5 9.5s9.5 13.833 9.5 22.5v288c0 8.66699 -3.16699 16.167 -9.5 22.5s-13.833 9.5 -22.5 9.5zM256.002 34c-39.333 0 -72.833 13.833 -100.5 41.5s-41.5 61.167 -41.5 100.5
s13.833 72.833 41.5 100.5s61.167 41.5 100.5 41.5s72.833 -13.833 100.5 -41.5s41.5 -61.167 41.5 -100.5s-13.833 -72.833 -41.5 -100.5s-61.167 -41.5 -100.5 -41.5zM480.002 256h-64v32h64v-32z" />
    <glyph unicode="&#xe021;" 
d="M416 448h-320c-17.333 0 -32.333 -6.33301 -45 -19s-19 -27.667 -19 -45v-320c0 -17.333 6.33301 -32.333 19 -45s27.667 -19 45 -19h320c17.333 -0 32.333 6.33301 45 19s19 27.667 19 45v320c0 17.333 -6.33301 32.333 -19 45s-27.667 19 -45 19zM336 192
c0 -22 -7.83301 -40.833 -23.5 -56.5s-34.5 -23.5 -56.5 -23.5s-40.833 7.83301 -56.5 23.5s-23.5 34.5 -23.5 56.5c0 26.667 10.667 48 32 64h96c21.333 -16 32 -37.333 32 -64zM160 384h32v-64h-32v64zM96 384h32v-64h-32v64zM416 64h-160h-160v192h49
c-11.333 -20 -17 -41.333 -17 -64c0 -35.333 12.5 -65.5 37.5 -90.5s55.167 -37.5 90.5 -37.5s65.5 12.5 90.5 37.5s37.5 55.167 37.5 90.5c0 22.667 -5.66699 44 -17 64h49v-192z" />
    <glyph unicode="&#xe022;" 
d="M406 333c-8.66699 12 -17.0029 21.9971 -25.0029 29.9971s-13.667 13.833 -17 17.5s-8.16602 12.667 -14.499 27s-14.833 36.166 -25.5 65.499l-44 7l-50 -366c-38 20 -70 28.167 -96 24.5s-45.333 -15.834 -58 -36.501s-16 -45 -10 -73
c3.33301 -15.333 12.5 -28.666 27.5 -39.999s33.333 -18.166 55 -20.499s44.5 3.16699 68.5 16.5c25.333 15.333 41.333 40.333 48 75l35 272c24.667 -22 43.834 -42.833 57.501 -62.5s22.334 -37.667 26.001 -54s4.83398 -32.666 3.50098 -48.999s-5 -31.666 -11 -45.999
s-11.333 -29.5 -16 -45.5c15.333 6 29.666 16.333 42.999 31s24.833 32.667 34.5 54s12.167 47.333 7.5 78s-17.667 62.334 -39 95.001z" />
    <glyph unicode="&#xe023;" 
d="M160 384v-264c-15.333 5.33301 -31.333 8 -48 8c-30.667 0 -57 -7.83301 -79 -23.5s-33 -34.5 -33 -56.5s11 -40.833 33 -56.5s48.333 -23.5 79 -23.5s57 7.83301 79 23.5s33 34.5 33 56.5v152l224 61v-77c-15.333 5.33301 -31.333 8 -48 8
c-30.667 0 -57 -7.83301 -79 -23.5s-33 -34.5 -33 -56.5s11 -40.833 33 -56.5s48.333 -23.5 79 -23.5s57 7.83301 79 23.5s33 34.5 33 56.5v368zM224 249v49l224 61v-49z" />
    <glyph unicode="&#xe024;" 
d="M160 384l352 96v-32v-64v-272c0 -22 -11 -40.833 -33 -56.5s-48.333 -23.5 -79 -23.5s-57 7.83301 -79 23.5s-33 34.5 -33 56.5s11 40.833 33 56.5s48.333 23.5 79 23.5c16.667 0 32.667 -2.66699 48 -8v165l-224 -61v-240c0 -22 -11 -40.833 -33 -56.5
s-48.333 -23.5 -79 -23.5s-57 7.83301 -79 23.5s-33 34.5 -33 56.5s11 40.833 33 56.5s48.333 23.5 79 23.5c16.667 0 32.667 -2.66699 48 -8v168v96z" />
    <glyph unicode="&#xe025;" 
d="M0 480v-512h480v512h-480zM96 0h-64v448h32v-320h32v-128zM224 0h-96v128h32v320h32v-320h32v-128zM352 0h-96v128h32v320h32v-320h32v-128zM448 0h-64v128h32v320h32v-448z" />
    <glyph unicode="&#xe026;" 
d="M96 191v-222c5.33301 -0.666992 10.666 -1 15.999 -1h16v224h-16c-5.33301 0 -10.666 -0.333008 -15.999 -1zM384 192v-224h16c5.33301 0 10.666 0.333008 15.999 1v222c-5.33301 0.666992 -10.666 1 -15.999 1h-16zM512 224c0 70.667 -25 131 -75 181
s-110.333 75 -181 75s-131 -25 -181 -75s-75 -110.333 -75 -181c0 -30 5 -59 15 -87c-10 -18 -15 -37 -15 -57c-0 -22 5.83301 -42.167 17.5 -60.5s27.167 -31.833 46.5 -40.5v202c-10 -4.66699 -19 -10.667 -27 -18c-3.33301 14.667 -5 29.667 -5 45
c0 62 21.833 114.833 65.5 158.5s96.5 65.5 158.5 65.5s114.833 -21.833 158.5 -65.5s65.5 -96.5 65.5 -158.5c0 -15.333 -1.66699 -30.333 -5 -45c-8 7.33301 -17 13.333 -27 18v-202c19.333 8.66699 34.833 22.167 46.5 40.5s17.5 38.5 17.5 60.5c0 20 -5 39 -15 57
c10 28 15 57 15 87z" />
    <glyph unicode="&#xe027;" 
d="M256 416c-62 0 -114.831 -21.833 -158.498 -65.5s-65.5 -96.5 -65.5 -158.5v-96h32v96c0 50.667 18.167 90 54.5 118s82.166 42 137.499 42s101.166 -14 137.499 -42s54.5 -67.333 54.5 -118v-96h32v96c0 62 -21.833 114.833 -65.5 158.5s-96.5 65.5 -158.5 65.5z
M139.002 192h-22c-5.33301 0 -10.166 -2.16699 -14.499 -6.5s-6.5 -9.16602 -6.5 -14.499v-118c0 -5.33301 2.16699 -10.166 6.5 -14.499s9.16602 -6.5 14.499 -6.5h22c5.33301 0 10.166 2.16699 14.499 6.5s6.5 9.16602 6.5 14.499v118
c0 5.33301 -2.16699 10.166 -6.5 14.499s-9.16602 6.5 -14.499 6.5zM395.002 192h-22c-5.33301 0 -10.166 -2.16699 -14.499 -6.5s-6.5 -9.16602 -6.5 -14.499v-118c0 -5.33301 2.16699 -10.166 6.5 -14.499s9.16602 -6.5 14.499 -6.5h22
c5.33301 0 10.166 2.16699 14.499 6.5s6.5 9.16602 6.5 14.499v118c0 5.33301 -2.16699 10.166 -6.5 14.499s-9.16602 6.5 -14.499 6.5z" />
    <glyph unicode="&#xe028;" 
d="M491 400c-74.667 10.667 -153 16 -235 16s-160.333 -5.33301 -235 -16c-14 -56 -21 -114.667 -21 -176s7 -120 21 -176c74.667 -10.667 153 -16 235 -16s160.333 5.33301 235 16c14 56 21 114.667 21 176s-7 120 -21 176zM192 128v192l160 -96z" />
    <glyph unicode="&#xe029;" 
d="M39 349l433 116l25 -93l-433 -116zM64 256v-288h448v288h-448zM224 32v160l128 -80z" />
    <glyph unicode="&#xe02a;" 
d="M256 480c-70.667 0 -131 -25 -181 -75s-75 -110.333 -75 -181s25 -131 75 -181s110.333 -75 181 -75s131 25 181 75s75 110.333 75 181s-25 131 -75 181s-110.333 75 -181 75zM256 423c15.333 0 28.333 -5.33301 39 -16s16 -23.5 16 -38.5s-5.33301 -27.833 -16 -38.5
s-23.667 -16 -39 -16s-28.333 5.33301 -39 16s-16 23.5 -16 38.5s5.33301 27.833 16 38.5s23.667 16 39 16zM58 272.5c0 15 5.33301 27.833 16 38.5s23.5 16 38.5 16s27.833 -5.33301 38.5 -16s16 -23.5 16 -38.5s-5.33301 -27.833 -16 -38.5s-23.5 -16 -38.5 -16
s-27.833 5.33301 -38.5 16s-16 23.5 -16 38.5zM169.5 57c-15 0 -27.833 5.33301 -38.5 16s-16 23.667 -16 39s5.33301 28.333 16 39s23.5 16 38.5 16s27.833 -5.33301 38.5 -16s16 -23.667 16 -39s-5.33301 -28.333 -16 -39s-23.5 -16 -38.5 -16zM256 192
c-8.66699 0 -16.167 3.16699 -22.5 9.5s-9.5 13.833 -9.5 22.5s3.16699 16.167 9.5 22.5s13.833 9.5 22.5 9.5s16.167 -3.16699 22.5 -9.5s9.5 -13.833 9.5 -22.5s-3.16699 -16.167 -9.5 -22.5s-13.833 -9.5 -22.5 -9.5zM342.5 57c-15 0 -27.833 5.33301 -38.5 16
s-16 23.5 -16 38.5s5.33301 27.833 16 38.5s23.5 16 38.5 16s27.833 -5.33301 38.5 -16s16 -23.5 16 -38.5s-5.33301 -27.833 -16 -38.5s-23.5 -16 -38.5 -16zM399.5 218c-15 0 -27.833 5.33301 -38.5 16s-16 23.5 -16 38.5s5.33301 27.833 16 38.5s23.5 16 38.5 16
s27.833 -5.33301 38.5 -16s16 -23.5 16 -38.5s-5.33301 -27.833 -16 -38.5s-23.5 -16 -38.5 -16z" />
    <glyph unicode="&#xe02b;" 
d="M0 480v-512h512v512h-512zM320 448h64v-64h-64v64zM224 448h64v-64h-64v64zM128 448h64v-64h-64v64zM32 448h64v-64h-64v64zM32 352h192v-256h-192v256zM96 0h-64v64h64v-64zM192 0h-64v64h64v-64zM288 0h-64v64h64v-64zM384 0h-64v64h64v-64zM480 0h-64v64h64v-64z
M480 96h-224v256h224v-256zM480 384h-64v64h64v-64z" />
    <glyph unicode="&#xe02c;" 
d="M0 448v-448h512v448h-512zM96 32h-64v64h64v-64zM96 128h-64v64h64v-64zM96 256h-64v64h64v-64zM96 352h-64v64h64v-64zM384 32h-256v64v32v64h256v-160zM384 256h-256v160h256v-160zM480 32h-64v64h64v-64zM480 128h-64v64h64v-64zM480 256h-64v64h64v-64zM480 352h-64
v64h64v-64z" />
    <glyph unicode="&#xe02d;" 
d="M0 416v-384h512v384h-512zM96 64h-64v64h64v-64zM96 192h-64v64h64v-64zM96 320h-64v64h64v-64zM384 64h-256v320h256v-320zM480 64h-64v64h64v-64zM480 192h-64v64h64v-64zM480 320h-64v64h64v-64zM192 320v-192l128 96z" />
    <glyph unicode="&#xe02e;" 
d="M192 336c0 22 7.83301 40.833 23.5 56.5s34.5 23.5 56.5 23.5s40.833 -7.83301 56.5 -23.5s23.5 -34.5 23.5 -56.5s-7.83301 -40.833 -23.5 -56.5s-34.5 -23.5 -56.5 -23.5s-40.833 7.83301 -56.5 23.5s-23.5 34.5 -23.5 56.5zM0 336c0 22 7.83301 40.833 23.5 56.5
s34.5 23.5 56.5 23.5s40.833 -7.83301 56.5 -23.5s23.5 -34.5 23.5 -56.5s-7.83301 -40.833 -23.5 -56.5s-34.5 -23.5 -56.5 -23.5s-40.833 7.83301 -56.5 23.5s-23.5 34.5 -23.5 56.5zM384 176v48c0 8.66699 -3.16699 16.167 -9.5 22.5s-13.833 9.5 -22.5 9.5h-80h-192h-48
c-8.66699 0 -16.167 -3.16699 -22.5 -9.5s-9.5 -13.833 -9.5 -22.5v-160c0 -8.66699 3.16699 -16.167 9.5 -22.5s13.833 -9.5 22.5 -9.5h320c8.66699 0 16.167 3.16699 22.5 9.5s9.5 13.833 9.5 22.5v48l128 -80v224zM320 96h-256v96h256v-96z" />
    <glyph unicode="&#xe02f;" 
d="M489 352c-5.33301 0 -10.333 -2 -15 -6l-90 -63v53c0 13.333 -4.66699 24.666 -14 33.999s-20.666 14 -33.999 14h-288c-13.333 0 -24.666 -4.66699 -33.999 -14s-14 -20.666 -14 -33.999v-224c0 -13.333 4.66699 -24.666 14 -33.999s20.666 -14 33.999 -14h288
c13.333 0 24.666 4.66699 33.999 14s14 20.666 14 33.999v53l90 -63c4.66699 -4 9.66699 -6 15 -6c8 0 14 3 18 9c3.33301 4.66699 5 10 5 16v206c0 7.33301 -2.16699 13.333 -6.5 18s-9.83301 7 -16.5 7z" />
    <glyph unicode="&#xe030;" 
d="M489 352c-5.33301 0 -10.333 -2 -15 -6l-90 -63v53c0 13.333 -4.66699 24.666 -14 33.999s-20.666 14 -33.999 14h-288c-13.333 0 -24.666 -4.66699 -33.999 -14s-14 -20.666 -14 -33.999v-224c0 -13.333 4.66699 -24.666 14 -33.999s20.666 -14 33.999 -14h288
c13.333 0 24.666 4.66699 33.999 14s14 20.666 14 33.999v53l90 -63c4.66699 -4 9.66699 -6 15 -6c8 0 14 3 18 9c3.33301 4.66699 5 10 5 16v206c0 7.33301 -2.16699 13.333 -6.5 18s-9.83301 7 -16.5 7zM480 136l-79 56h-49v-80c0 -4.66699 -1.5 -8.5 -4.5 -11.5
s-6.83301 -4.5 -11.5 -4.5h-288c-4.66699 0 -8.5 1.5 -11.5 4.5s-4.5 6.83301 -4.5 11.5v224c0 4.66699 1.5 8.5 4.5 11.5s6.83301 4.5 11.5 4.5h288c4.66699 0 8.5 -1.5 11.5 -4.5s4.5 -6.83301 4.5 -11.5v-80h49l79 56v-176z" />
    <glyph unicode="&#xe031;" 
d="M432 384h-256c-22 0 -40.833 -7.83301 -56.5 -23.5s-23.5 -34.5 -23.5 -56.5v-256c0 -22 7.83301 -40.833 23.5 -56.5s34.5 -23.5 56.5 -23.5h256c22 0 40.833 7.83301 56.5 23.5s23.5 34.5 23.5 56.5v256c0 22 -7.83301 40.833 -23.5 56.5s-34.5 23.5 -56.5 23.5z
M208 32c-13.333 0 -24.666 4.66699 -33.999 14s-14 20.666 -14 33.999s4.66699 24.666 14 33.999s20.666 14 33.999 14s24.666 -4.66699 33.999 -14s14 -20.666 14 -33.999s-4.66699 -24.666 -14 -33.999s-20.666 -14 -33.999 -14zM208 224
c-13.333 0 -24.666 4.66699 -33.999 14s-14 20.666 -14 33.999s4.66699 24.666 14 33.999s20.666 14 33.999 14s24.666 -4.66699 33.999 -14s14 -20.666 14 -33.999s-4.66699 -24.666 -14 -33.999s-20.666 -14 -33.999 -14zM304 128c-13.333 0 -24.666 4.66699 -33.999 14
s-14 20.666 -14 33.999s4.66699 24.666 14 33.999s20.666 14 33.999 14s24.666 -4.66699 33.999 -14s14 -20.666 14 -33.999s-4.66699 -24.666 -14 -33.999s-20.666 -14 -33.999 -14zM400 32c-13.333 0 -24.666 4.66699 -33.999 14s-14 20.666 -14 33.999
s4.66699 24.666 14 33.999s20.666 14 33.999 14s24.666 -4.66699 33.999 -14s14 -20.666 14 -33.999s-4.66699 -24.666 -14 -33.999s-20.666 -14 -33.999 -14zM400 224c-13.333 0 -24.666 4.66699 -33.999 14s-14 20.666 -14 33.999s4.66699 24.666 14 33.999
s20.666 14 33.999 14s24.666 -4.66699 33.999 -14s14 -20.666 14 -33.999s-4.66699 -24.666 -14 -33.999s-20.666 -14 -33.999 -14zM414 416c-3.33301 18.667 -12.333 34 -27 46s-31.667 18 -51 18h-256c-22 0 -40.833 -7.83301 -56.5 -23.5s-23.5 -34.5 -23.5 -56.5v-256
c0 -19.333 6 -36.333 18 -51s27.333 -23.667 46 -27v318c0 8.66699 3.16699 16.167 9.5 22.5s13.833 9.5 22.5 9.5h318z" />
    <glyph unicode="&#xe032;" 
d="M482 391c-24 27.333 -52.833 49 -86.5 65s-69.5 24 -107.5 24c-70.667 0 -131 -25 -181 -75s-75 -110.333 -75 -181s25 -131 75 -181s110.333 -75 181 -75c38 0 73.833 8 107.5 24s62.5 37.667 86.5 65l-162 167zM352 420c10 0 18.5 -3.5 25.5 -10.5
s10.5 -15.5 10.5 -25.5s-3.5 -18.5 -10.5 -25.5s-15.5 -10.5 -25.5 -10.5s-18.5 3.5 -25.5 10.5s-10.5 15.5 -10.5 25.5s3.5 18.5 10.5 25.5s15.5 10.5 25.5 10.5z" />
    <glyph unicode="&#xe033;" 
d="M409 306c-30 22 -56 44.667 -78 68s-37.667 42.166 -47 56.499s-18.666 30.833 -27.999 49.5v0c-9.33301 -18.667 -18.666 -35.167 -27.999 -49.5s-25 -33.166 -47 -56.499s-48 -46 -78 -68c-26 -19.333 -45 -40.5 -57 -63.5s-16.667 -44.333 -14 -64s10 -37.5 22 -53.5
s27.167 -28.167 45.5 -36.5s39.166 -11.166 62.499 -8.49902s46 11.334 68 26.001c-4 -27.333 -12.5 -51.5 -25.5 -72.5s-27.833 -36.5 -44.5 -46.5v-19h96h96v19c-16.667 10 -31.5 25.5 -44.5 46.5s-21.5 45.167 -25.5 72.5c22 -14.667 44.667 -23.334 68 -26.001
s44.166 0.166016 62.499 8.49902s33.5 20.5 45.5 36.5s19.333 33.833 22 53.5s-2 41 -14 64s-31 44.167 -57 63.5z" />
    <glyph unicode="&#xe034;" 
d="M393 284c-29.333 0 -54.333 -11 -75 -33c-7.33301 -8 -19.333 -17 -36 -27c3.33301 12.667 9.5 26.5 18.5 41.5s17.5 26.5 25.5 34.5c21.333 20 32 45 32 75c0 28.667 -9.83301 53.334 -29.5 74.001s-43.834 31 -72.501 31s-52.834 -10.333 -72.501 -31
s-29.5 -45.334 -29.5 -74.001c0 -30 10.667 -55 32 -75c8 -8 16.5 -19.5 25.5 -34.5s15.167 -28.833 18.5 -41.5c-16.667 10 -28.667 19 -36 27c-20.667 22 -45.667 33 -75 33c-28.667 0 -53.167 -10.333 -73.5 -31s-30.5 -45.334 -30.5 -74.001
s10.167 -53.334 30.5 -74.001s44.833 -31 73.5 -31c29.333 0 54.333 11 75 33c8.66699 10 21.667 19.667 39 29c-0.666992 -34.667 -8.16699 -65.334 -22.5 -92.001s-31.166 -45.667 -50.499 -57v-19h96h96v19c-19.333 11.333 -36.166 30.333 -50.499 57
s-21.833 57.334 -22.5 92.001c17.333 -9.33301 30.333 -19 39 -29c20.667 -22 45.667 -33 75 -33c28.667 0 53.167 10.333 73.5 31s30.5 45.334 30.5 74.001s-10.167 53.334 -30.5 74.001s-44.833 31 -73.5 31z" />
    <glyph unicode="&#xe035;" 
d="M256 480l-160 -256l160 -256l160 256z" />
    <glyph unicode="&#xe036;" 
d="M487 347c-16.667 16.667 -38.6631 25 -65.9961 25c-36.667 0 -72.334 -14 -107.001 -42c-8.66699 26.667 -22.667 43.667 -42 51v35h48v32h-48v32h-32v-32h-48v-32h48v-35c-19.333 -7.33301 -33.333 -24.333 -42 -51c-34.667 28 -70.334 42 -107.001 42
c-27.333 0 -49.333 -8.33301 -66 -25c-22 -22 -29.667 -51.667 -23 -89s25.667 -71.666 57 -102.999c11.333 -11.333 23.666 -21.333 36.999 -30v-47c46.667 -9.33301 100 -14 160 -14s113.333 4.66699 160 14v47c13.333 8.66699 25.666 18.667 36.999 30
c31.333 31.333 50.333 65.666 57 102.999s-1 67 -23 89zM82.0039 291c1.33301 0.666992 4.33301 1 9 1v0c22.667 0 46 -11.667 70 -35c18 -18 29.333 -37.333 34 -58c2 -10.667 2 -17.667 0 -21c-2 -1.33301 -5 -2 -9 -2c-23.333 0 -47 11.667 -71 35
c-18 18.667 -29 38 -33 58c-2.66699 10.667 -2.66699 18 0 22zM430.004 269c-4 -20 -15 -39.333 -33 -58c-24 -23.333 -47.667 -35 -71 -35c-4 0 -7 0.666992 -9 2c-2 3.33301 -2 10.333 0 21c4.66699 20.667 16 40 34 58c24 23.333 47.333 35 70 35
c4.66699 0 7.66699 -0.333008 9 -1c2.66699 -4 2.66699 -11.333 0 -22zM96.0039 29v-47c46.667 -9.33301 100 -14 160 -14s113.333 4.66699 160 14v47c-48 -8.66699 -101.333 -13 -160 -13s-112 4.33301 -160 13z" />
    <glyph unicode="&#xe037;" 
d="M256 0c-59.333 0 -111.668 4.66699 -157.001 14l-3 1v-33c46.667 -9.33301 100 -14 160 -14s113.333 4.66699 160 14v33l-3 -1c-45.333 -9.33301 -97.666 -14 -156.999 -14zM383.998 49v15l-16 32h-224l-16 -32v-15c39.333 -6 82 -9 128 -9s88.667 3 128 9zM500.998 339
c-7.33301 7.33301 -16.335 11 -27.002 11s-20 -3.66699 -28 -11c-6 -6 -9.5 -13.5 -10.5 -22.5s0.833008 -17.167 5.5 -24.5l-98 -58l19 91c8.66699 -2 17 -1.16699 25 2.5s14 9.5 18 17.5c4.66699 10 5.16699 20 1.5 30s-10.167 17.333 -19.5 22s-19 5.16699 -29 1.5
s-17.333 -10.167 -22 -19.5c-4 -8 -5 -16.333 -3 -25s6.33301 -15.667 13 -21l-60 -71l-21 85c8.66699 2 15.667 6.5 21 13.5s8 14.833 8 23.5c0 10.667 -3.66699 19.667 -11 27s-16.333 11 -27 11s-19.667 -3.66699 -27 -11s-11 -16.333 -11 -27
c0 -8.66699 2.66699 -16.5 8 -23.5s12.333 -11.5 21 -13.5l-21 -85l-60 71c6.66699 5.33301 11 12.333 13 21s1 17 -3 25c-4.66699 9.33301 -12 15.833 -22 19.5s-19.667 3.16699 -29 -1.5s-15.833 -12 -19.5 -22s-3.16699 -20 1.5 -30c4 -8 10 -13.833 18 -17.5
s16.333 -4.5 25 -2.5l19 -91l-98 58c4.66699 7.33301 6.5 15.5 5.5 24.5s-4.5 16.5 -10.5 22.5c-8 7.33301 -17.333 11 -28 11s-19.667 -3.66699 -27 -11s-11 -16.333 -11 -27s3.66699 -19.667 11 -27c6.66699 -6.66699 14.334 -10.5 23.001 -11.5s16.667 0.833008 24 5.5
l91 -151h214l91 151c7.33301 -4.66699 15.333 -6.5 24 -5.5s16.334 4.83301 23.001 11.5c7.33301 7.33301 11 16.333 11 27s-3.66699 19.667 -11 27z" />
    <glyph unicode="&#xe038;" 
d="M96 336h288v-256h-288v256zM384 352l64 64v64h-64v-32h-96v32h-96v-32h-96v32h-64v-64l64 -64h288zM384 400l-16 -16h-256l-16 16h288zM64 64h352v-32h-352v32zM448 16h-415.999c-16.667 -10.667 -27.334 -26.667 -32.001 -48h480c-2 9.33301 -5.66699 18 -11 26
s-10.333 13.667 -15 17z" />
    <glyph unicode="&#xe039;" 
d="M397 96h-313.998c7.33301 -18.667 25.666 -34 54.999 -46s63.333 -18 102 -18s72.667 6 102 18s47.666 27.333 54.999 46zM0.00195312 -32l45 0.000976562c0 2.66699 1.83301 6 5.5 10s6.83398 6 9.50098 6h135c12 0 22.5 5.66699 31.5 17s13.5 21.666 13.5 30.999h-180
c-14.667 0 -28.334 -6.66699 -41.001 -20s-19 -28 -19 -44zM420.002 32.001l-180 -0.000976562c0 -9.33301 4.5 -19.666 13.5 -30.999s19.5 -17 31.5 -17h135c2.66699 0 5.83398 -2 9.50098 -6s5.5 -7.33301 5.5 -10h45c0 16 -6.33301 30.667 -19 44s-26.334 20 -41.001 20z
M240.002 128h157.002c-6.66699 16 -21.667 29.667 -45 41c10.667 14.667 16 33 16 55c0 36.667 -10.333 68.167 -31 94.5s-43.334 45.5 -68.001 57.5c18 10.667 27 26.667 27 48c0 15.333 -5.5 28.5 -16.5 39.5s-24.167 16.5 -39.5 16.5s-28.5 -5.5 -39.5 -16.5
s-16.5 -24.167 -16.5 -39.5c0 -21.333 9 -37.333 27 -48c-24.667 -12 -47.334 -31.167 -68.001 -57.5s-31 -57.833 -31 -94.5c0 -22 5.33301 -40.333 16 -55c-23.333 -11.333 -38.333 -25 -45 -41h157zM160.004 256v32h64v64h32v-64h64v-32h-64v-64h-32v64h-64z" />
    <glyph unicode="&#xe03a;" 
d="M496 0h-368l-16 -32h400zM284 224c1.33301 -24 -2.49512 -46.668 -11.4951 -68.001s-19.667 -38.333 -32 -51s-26 -27.5 -41 -44.5s-25.833 -31.833 -32.5 -44.5h313v176c0 52.667 -8.83301 99 -26.5 139s-40.5 70.333 -68.5 91c-2.66699 11.333 -6 21.333 -10 30l-6 14
c-3.33301 8 -8.33301 12.5 -15 13.5s-13 -1.83301 -19 -8.5l-19 -23v0c-8 0 -15.667 -0.333008 -23 -1l-42 28c-7.33301 5.33301 -13.666 6.5 -18.999 3.5s-8 -8.83301 -8 -17.5v-32c-6.66699 -4 -18.667 -12.667 -36 -26c-10 -7.33301 -23.833 -20.833 -41.5 -40.5
l-65 -75.5l-53.5 -63c-15.333 -16.667 -23.833 -32.5 -25.5 -47.5s2.16602 -26 11.499 -33s21.666 -8.83301 36.999 -5.5c-0.666992 -13.333 2.16602 -21.666 8.49902 -24.999s13.666 -3.33301 21.999 0s17.166 8.33301 26.499 15c11.333 8.66699 28.166 16.167 50.499 22.5
s42.5 11 60.5 14s33.5 9.5 46.5 19.5s19.167 23.333 18.5 40zM387.005 392.999c18 -17.333 32.667 -39 44 -65c18 -40 27 -85.333 27 -136v-144l-48 48v96c0 43.333 -7.66699 82 -23 116c-9.33301 20.667 -20.333 38 -33 52zM80.0049 184.999c-6 0 -11.333 2.33301 -16 7
s-7 10 -7 16s2.33301 11.333 7 16s10 7 16 7s11.333 -2.33301 16 -7s7 -10 7 -16s-2.33301 -11.333 -7 -16s-10 -7 -16 -7zM241.005 335.999c-9.33301 -9.33301 -19 -15.666 -29 -18.999s-17.333 -2.66602 -22 2.00098s-5.33398 12 -2.00098 22s9.66602 19.667 18.999 29
s19 15.666 29 18.999s17.333 2.66602 22 -2.00098s5.33398 -12 2.00098 -22s-9.66602 -19.667 -18.999 -29z" />
    <glyph unicode="&#xe03b;" 
d="M368 162c10.667 19.333 16.002 40 16.002 62c0 25.333 -6.83301 48.5 -20.5 69.5s-31.834 36.5 -54.501 46.5c18 16 27 36 27 60c0 22 -7.83301 40.833 -23.5 56.5s-34.5 23.5 -56.5 23.5s-40.833 -7.83301 -56.5 -23.5s-23.5 -34.5 -23.5 -56.5c0 -24 9 -44 27 -60
c-22.667 -10 -40.834 -25.5 -54.501 -46.5s-20.5 -44.167 -20.5 -69.5c0 -22 5.33301 -42.667 16 -62c-34 -20 -61.167 -47.167 -81.5 -81.5s-30.5 -71.833 -30.5 -112.5h448c0 40.667 -10.167 78.167 -30.5 112.5s-47.5 61.5 -81.5 81.5z" />
    <glyph unicode="&#xe03c;" 
d="M512 265.5c0 50.333 -6.33594 93.333 -19.0029 129s-28.334 53.5 -47.001 53.5h1h-42c-7.33301 -5.33301 -17.666 -12.333 -30.999 -21s-40.666 -22.167 -81.999 -40.5s-82.666 -31.833 -123.999 -40.5c-4.66699 -24.667 -7 -51.5 -7 -80.5s2.33301 -55.833 7 -80.5
c86 -18 163.333 -51 232 -99l5 -3h42h-1c18.667 0 34.334 17.833 47.001 53.5s19 78.667 19 129zM432.497 110c-3.66699 0 -7.83398 2.66699 -12.501 8c-6.66699 7.33301 -12.667 18 -18 32c-12 31.333 -18 69.666 -18 114.999s6 84 18 116c5.33301 14 11.333 24.667 18 32
c4.66699 4.66699 8.83398 7 12.501 7s7.83398 -2.33301 12.501 -7c6 -7.33301 11.667 -18 17 -32c12 -32 18 -70.667 18 -116s-6 -83.666 -18 -114.999c-5.33301 -14 -11 -24.667 -17 -32c-4.66699 -5.33301 -8.83398 -8 -12.501 -8zM125.997 265c0 26 1.66699 51 5 75
c-24.667 -3.33301 -48 -5 -70 -5h-33l-28 -48v-44l28 -47h33c22 0 45.333 -1.66699 70 -5c-3.33301 23.333 -5 48 -5 74zM183.997 159l-63.999 12.001l41 -161c1.33301 -4 3.66602 -6.83301 6.99902 -8.5s7 -1.83398 11 -0.500977l60 24c4 1.33301 6.66699 4 8 8
s1 7.66699 -1 11zM431.998 206.001c-1.33301 0 -2.66602 1 -3.99902 3c-2.66699 2.66699 -5 6.66699 -7 12c-4.66699 12 -7 26.833 -7 44.5s2.33301 32.5 7 44.5c2 5.33301 4.33301 9.33301 7 12c1.33301 2 2.66602 3 3.99902 3s3 -1 5 -3
c2.66699 -2.66699 5 -6.66699 7 -12c4.66699 -12 7 -26.833 7 -44.5s-2.33301 -32.5 -7 -44.5c-2 -5.33301 -4.33301 -9.33301 -7 -12c-2 -2 -3.66699 -3 -5 -3z" />
    <glyph unicode="&#xe03d;" 
d="M64 288h-64v-160h64v32l64 -18v-1v-45c0 -8.66699 3.16699 -16.167 9.5 -22.5s13.833 -9.5 22.5 -9.5h64c8.66699 0 16.167 3.16699 22.5 9.5s9.5 13.833 9.5 22.5v9l160 -46v298l-352 -101v32zM160 133l64 -19v-18h-64v37zM448 366v-316l64 -18v352z" />
    <glyph unicode="&#xe03e;" 
d="M448 384h-384c-17.333 0 -32.333 -6.33301 -45 -19s-19 -27.667 -19 -45v-192c-0 -17.333 6.33301 -32.333 19 -45s27.667 -19 45 -19h384c17.333 0 32.333 6.33301 45 19s19 27.667 19 45v192c0 17.333 -6.33301 32.333 -19 45s-27.667 19 -45 19zM160 128h-32l-64 107
v-107h-32v160h32l64 -107v107h32v-160zM288 256h-64v-32h64v-32h-64v-32h64v-32h-96v160h96v-32zM480 128h-48l-32 64l-32 -64h-48v160h32v-128l32 64h32l32 -64v128h32v-160z" />
    <glyph unicode="&#xe03f;" horiz-adv-x="640" 
d="M320 192c52.667 0 98 -18.667 136 -56l-46 -46c-24.667 25.333 -54.667 38 -90 38s-65.333 -12.667 -90 -38l-46 46c38 37.333 83.333 56 136 56zM94 226c62 62.667 137.333 94 226 94s164 -31.333 226 -94l-45 -45c-50 50 -110.333 75 -181 75s-131 -25 -181 -75z
M494 413c54 -22.667 101.669 -54.667 143.002 -96l-45 -45c-36.667 36 -78.334 63.667 -125.001 83s-95.667 29 -147 29s-100.333 -9.66699 -147 -29s-88.334 -47 -125.001 -83l-45 45c41.333 41.333 89 73.333 143 96c55.333 23.333 113.333 35 174 35
s118.667 -11.667 174 -35zM288.002 32c0 8.66699 3.16699 16.167 9.5 22.5s13.833 9.5 22.5 9.5s16.167 -3.16699 22.5 -9.5s9.5 -13.833 9.5 -22.5s-3.16699 -16.167 -9.5 -22.5s-13.833 -9.5 -22.5 -9.5s-16.167 3.16699 -22.5 9.5s-9.5 13.833 -9.5 22.5z" />
    <glyph unicode="&#xe040;" horiz-adv-x="640" 
d="M288 32c0 8.66699 3.16699 16.167 9.5 22.5s13.833 9.5 22.5 9.5s16.167 -3.16699 22.5 -9.5s9.5 -13.833 9.5 -22.5s-3.16699 -16.167 -9.5 -22.5s-13.833 -9.5 -22.5 -9.5s-16.167 3.16699 -22.5 9.5s-9.5 13.833 -9.5 22.5zM320 384c112 0 211.335 -31 298.002 -93
c-36 49.333 -80 87.833 -132 115.5s-107.333 41.5 -166 41.5s-113.834 -13.833 -165.501 -41.5s-95.834 -66.167 -132.501 -115.5c86.667 62 186 93 298 93zM320.002 256c76 0 144.667 -18.333 206 -55c-24 36.667 -54 65.667 -90 87s-74.667 32 -116 32
s-80 -10.667 -116 -32s-66 -50.333 -90 -87c61.333 36.667 130 55 206 55zM320.002 128c40 0 77.998 -5 113.998 -15c-11.333 24 -27.166 43.167 -47.499 57.5s-42.5 21.5 -66.5 21.5s-46.167 -7.16699 -66.5 -21.5s-36.166 -33.5 -47.499 -57.5c36 10 74 15 114 15z" />
    <glyph unicode="&#xe041;" 
d="M512 224c0 70.667 -25 131 -75 181s-110.333 75 -181 75s-131 -25 -181 -75s-75 -110.333 -75 -181c0 -54 15.5 -103 46.5 -147s71.167 -75 120.5 -93l-7 -16h192l-7 16c49.333 18 89.5 49 120.5 93s46.5 93 46.5 147zM243 163c-12.667 5.33301 -19 15 -19 29
c0 8.66699 3.16699 16.167 9.5 22.5s13.833 9.5 22.5 9.5s16.167 -3.16699 22.5 -9.5s9.5 -13.833 9.5 -22.5c0 -14 -6.33301 -23.667 -19 -29l-13 29zM269 161c14.667 3.33301 26.8301 10.833 36.4971 22.5s14.5 25.167 14.5 40.5c0 18 -6.16699 33.167 -18.5 45.5
s-27.5 18.5 -45.5 18.5s-33.167 -6.16699 -45.5 -18.5s-18.5 -27.5 -18.5 -45.5c0 -15.333 4.83301 -28.833 14.5 -40.5s21.834 -19.167 36.501 -22.5l-37 -87c-23.333 10 -42.166 25.667 -56.499 47s-21.5 45 -21.5 71c0 36 12.667 67.333 38 94s55.333 40 90 40
s64.667 -13.333 90 -40s38 -58 38 -94c0 -26 -7.16699 -49.667 -21.5 -71s-33.166 -37 -56.499 -47zM343.996 -14l-37 86c32 11.333 58.167 30.833 78.5 58.5s30.5 58.834 30.5 93.501c0 44 -15.667 81.667 -47 113s-69 47 -113 47s-81.667 -15.667 -113 -47
s-47 -69 -47 -113c0 -34.667 10.167 -65.834 30.5 -93.501s46.5 -47.167 78.5 -58.5l-37 -86c-40.667 17.333 -73.5 44.666 -98.5 81.999s-37.5 78.666 -37.5 123.999c0 62 22 115.833 66 161.5s96.667 68.5 158 68.5s114 -22.833 158 -68.5s66 -99.5 66 -161.5
c0 -45.333 -12.5 -86.666 -37.5 -123.999s-57.833 -64.666 -98.5 -81.999z" />
    <glyph unicode="&#xe042;" 
d="M320 320c0 18 -6.16699 33.167 -18.5 45.5s-27.5 18.5 -45.5 18.5s-33.167 -6.16699 -45.5 -18.5s-18.5 -27.5 -18.5 -45.5c0 -23.333 10 -41.333 30 -54l-82 -298h40l8 32h136l8 -32h40l-82 298c20 12.667 30 30.667 30 54zM297 96h-82l8 32h66zM232 160l24 88l24 -88
h-48zM197 32l9 32h100l9 -32h-118zM332 461c25.333 -14 45.666 -33.5 60.999 -58.5s23 -52.5 23 -82.5s-7.66699 -57.5 -23 -82.5s-35.666 -44.5 -60.999 -58.5c24 38 36 85 36 141s-12 103 -36 141zM428 461c25.333 -14 45.666 -33.5 60.999 -58.5s23 -52.5 23 -82.5
s-7.66699 -57.5 -23 -82.5s-35.666 -44.5 -60.999 -58.5c24 38 36 85 36 141s-12 103 -36 141zM180 179c-25.333 14 -45.666 33.5 -60.999 58.5s-23 52.5 -23 82.5s7.66699 57.5 23 82.5s35.666 44.5 60.999 58.5c-24 -38 -36 -85 -36 -141s12 -103 36 -141zM0 320
c0 30 7.66699 57.5 23 82.5s35.666 44.5 60.999 58.5c-24 -38 -36 -85 -36 -141s12 -103 36 -141c-25.333 14 -45.666 33.5 -60.999 58.5s-23 52.5 -23 82.5z" />
    <glyph unicode="&#xe043;" 
d="M192 224c0 17.333 6.33301 32.333 19 45s27.667 19 45 19s32.333 -6.33301 45 -19s19 -27.667 19 -45s-6.33301 -32.333 -19 -45s-27.667 -19 -45 -19s-32.333 6.33301 -45 19s-19 27.667 -19 45zM332 365c25.333 -14 45.666 -33.5 60.999 -58.5s23 -52.5 23 -82.5
s-7.66699 -57.5 -23 -82.5s-35.666 -44.5 -60.999 -58.5c24 38 36 85 36 141s-12 103 -36 141zM144 224c0 -56 12 -103 36 -141c-25.333 14 -45.666 33.5 -60.999 58.5s-23 52.5 -23 82.5s7.66699 57.5 23 82.5s35.666 44.5 60.999 58.5c-24 -38 -36 -85 -36 -141zM48 224
c0 -86.667 23.333 -158.667 70 -216c-36 23.333 -64.667 54 -86 92s-32 79.333 -32 124s10.667 86 32 124s50 68.667 86 92c-46.667 -57.333 -70 -129.333 -70 -216zM394 440c36 -23.333 64.667 -54 86 -92s32 -79.333 32 -124s-10.667 -86 -32 -124s-50 -68.667 -86 -92
c46.667 57.333 70 129.333 70 216s-23.333 158.667 -70 216z" />
    <glyph unicode="&#xe044;" 
d="M256 96c35.333 0 65.5 12.5 90.5 37.5s37.5 55.167 37.5 90.5v64h-256v-64c0 -35.333 12.5 -65.5 37.5 -90.5s55.167 -37.5 90.5 -37.5zM448 320h-32v-96c0 -44 -15.667 -81.667 -47 -113s-69 -47 -113 -47s-81.667 15.667 -113 47s-47 69 -47 113v96h-32l-32 -32h32v-64
c0 -47.333 15.167 -88.833 45.5 -124.5s68.5 -57.167 114.5 -64.5v-35l-64 -32h192l-64 32v35c46 7.33301 84.167 28.833 114.5 64.5s45.5 77.167 45.5 124.5v64h32zM384 352c0 35.333 -12.5 65.5 -37.5 90.5s-55.167 37.5 -90.5 37.5s-65.5 -12.5 -90.5 -37.5
s-37.5 -55.167 -37.5 -90.5v-32h256v32z" />
    <glyph unicode="&#xe045;" 
d="M240 128c22 0 40.833 7.83301 56.5 23.5s23.5 34.5 23.5 56.5v192c0 22 -7.83301 40.833 -23.5 56.5s-34.5 23.5 -56.5 23.5s-40.833 -7.83301 -56.5 -23.5s-23.5 -34.5 -23.5 -56.5v-192c0 -22 7.83301 -40.833 23.5 -56.5s34.5 -23.5 56.5 -23.5zM352 256v-48
c0 -30.667 -11 -57 -33 -79s-48.333 -33 -79 -33s-57 11 -79 33s-33 48.333 -33 79v48h-32v-48c0 -36.667 12.333 -68.667 37 -96s55 -43 91 -47v-65h-64v-32h64h32h64v32h-64v65c36 4 66.333 19.667 91 47s37 59.333 37 96v48h-32z" />
    <glyph unicode="&#xe046;" 
d="M320 400c0 22 -7.83301 40.833 -23.5 56.5s-34.5 23.5 -56.5 23.5s-40.833 -7.83301 -56.5 -23.5s-23.5 -34.5 -23.5 -56.5v-172l160 160v12zM129 196c-0.666992 4 -1 8 -1 12v48h-32v-48c0 -13.333 1.66699 -26.333 5 -39zM352 208c0 -30.667 -11 -57 -33 -79
s-48.333 -33 -79 -33c-33.333 0 -61.333 12.667 -84 38l23 22c16 -18.667 36.333 -28 61 -28c22 0 40.833 7.83301 56.5 23.5s23.5 34.5 23.5 56.5v89l128 129l-22 22l-106 -105l-319 -321l23 -22l110 111c24 -26.667 54 -42 90 -46v-65h-64v-32h64h32h64v32h-64v65
c36 4 66.333 19.667 91 47s37 59.333 37 96v48h-32v-48z" />
    <glyph unicode="&#xe047;" 
d="M229 312l-229 -280c0 -16 6.66699 -30.667 20 -44s28 -20 44 -20l280 229c-28 7.33301 -52.333 21.333 -73 42s-34.667 45 -42 73zM291 440c-23.333 -24.667 -35 -54 -35 -88c0 -35.333 12.5 -65.5 37.5 -90.5s55.167 -37.5 90.5 -37.5c34 0 63.333 11.667 88 35
c-46 8.66699 -85.5 29.5 -118.5 62.5s-53.833 72.5 -62.5 118.5zM416 416h32v-32h-32v32zM384 480c-22.667 0 -43.667 -5.66699 -63 -17c4 -46 22.5 -85.5 55.5 -118.5s72.5 -51.5 118.5 -55.5c11.333 19.333 17 40.333 17 63c0 35.333 -12.5 65.5 -37.5 90.5
s-55.167 37.5 -90.5 37.5zM480 384h-32v-32h32v-32h-32v32h-32v32h-32v32h-32v32h32v-32h32v32h32v-32h32v-32z" />
    <glyph unicode="&#xe048;" 
d="M384 416c-48.667 0 -91.3301 -16.333 -127.997 -49c-36.667 32.667 -79.334 49 -128.001 49s-91.334 -16.333 -128.001 -49v-9v-38v-192v-40v-7l1 -1c8 -7.33301 16.667 -14 26 -20c10 8 20.333 14.667 31 20c22 10.667 45.333 16 70 16s48 -5.33301 70 -16
c10.667 -5.33301 21 -12 31 -20l5 -4c8 -7.33301 15.333 -15.333 22 -24c6.66699 8.66699 14 16.667 22 24l5 4c10 8 20.333 14.667 31 20c22 10.667 45.333 16 70 16s48 -5.33301 70 -16c10.667 -5.33301 21 -12 31 -20c9.33301 6 18 12.667 26 20l1 1v7v40v192v38v9
c-36.667 32.667 -79.334 49 -128.001 49zM128.004 128c-34.667 0 -66.667 -8.66699 -96 -26v250c28.667 21.333 60.667 32 96 32s67.333 -10.667 96 -32v-250c-29.333 17.333 -61.333 26 -96 26zM384.004 128c-34.667 0 -66.667 -8.66699 -96 -26v250
c28.667 21.333 60.667 32 96 32s67.333 -10.667 96 -32v-250c-29.333 17.333 -61.333 26 -96 26z" />
    <glyph unicode="&#xe049;" 
d="M448 416v-415.998h-336c-13.333 0 -24.666 4.66699 -33.999 14s-14 20.666 -14 33.999s4.66699 24.666 14 33.999s20.666 14 33.999 14h304v384h-320c-17.333 0 -32.333 -6.33301 -45 -19s-19 -27.667 -19 -45v-384c0 -17.333 6.33301 -32.333 19 -45s27.667 -19 45 -19
h384v448h-32zM128 64.002h288v-32h-288v32z" />
    <glyph unicode="&#xe04a;" 
d="M288 335l121 41l102 -303l-121 -41zM0 32h128v352h-128v-352zM32 320h64v-32h-64v32zM160 32h128v352h-128v-352zM192 320h64v-32h-64v32z" />
    <glyph unicode="&#xe04b;" 
d="M256 480l-256 -160h512zM400 288l16 -32v-192h64v192l16 32h-96zM272 288l16 -32v-192h64v192l16 32h-96zM144 288l16 -32v-192h64v192l16 32h-96zM16 288l16 -32v-192h64v192l16 32h-96zM16 32l-16 -64h512l-16 64h-480zM288 384
c0 -8.66699 -3.16699 -16.167 -9.5 -22.5s-13.833 -9.5 -22.5 -9.5s-16.167 3.16699 -22.5 9.5s-9.5 13.833 -9.5 22.5s3.16699 16.167 9.5 22.5s13.833 9.5 22.5 9.5s16.167 -3.16699 22.5 -9.5s9.5 -13.833 9.5 -22.5z" />
    <glyph unicode="&#xe04c;" 
d="M432 480h-384c-13.333 0 -24.666 -4.66699 -33.999 -14s-14 -20.666 -14 -33.999v-416c0 -13.333 4.66699 -24.666 14 -33.999s20.666 -14 33.999 -14h384c13.333 0 24.666 4.66699 33.999 14s14 20.666 14 33.999v416c0 13.333 -4.66699 24.666 -14 33.999
s-20.666 14 -33.999 14zM416 32h-352v384h352v-384zM128 256h224v-32h-224v32zM128 192h224v-32h-224v32zM128 128h224v-32h-224v32zM128 320h224v-32h-224v32z" />
    <glyph unicode="&#xe04d;" 
d="M432 480h-384c-13.333 0 -24.666 -4.66699 -33.999 -14s-14 -20.666 -14 -33.999v-416c0 -13.333 4.66699 -24.666 14 -33.999s20.666 -14 33.999 -14h384c13.333 0 24.666 4.66699 33.999 14s14 20.666 14 33.999v416c0 13.333 -4.66699 24.666 -14 33.999
s-20.666 14 -33.999 14zM416 32h-352v384h352v-384zM128 192h224v-32h-224v32zM128 128h224v-32h-224v32zM160 336c0 13.333 4.66699 24.666 14 33.999s20.666 14 33.999 14s24.666 -4.66699 33.999 -14s14 -20.666 14 -33.999s-4.66699 -24.666 -14 -33.999
s-20.666 -14 -33.999 -14s-24.666 4.66699 -33.999 14s-14 20.666 -14 33.999zM240 288h-64.002c-13.333 0 -24.666 -3.16699 -33.999 -9.5s-14 -13.833 -14 -22.5v-32h160v32c0 8.66699 -4.66699 16.167 -14 22.5s-20.666 9.5 -33.999 9.5z" />
    <glyph unicode="&#xe04e;" 
d="M446 386l-59.999 59.999c-9.33301 9.33301 -22 17.333 -38 24s-30.667 10 -44 10h-224c-13.333 0 -24.666 -4.66699 -33.999 -14s-14 -20.666 -14 -33.999v-416c0 -13.333 4.66699 -24.666 14 -33.999s20.666 -14 33.999 -14h352c13.333 0 24.666 4.66699 33.999 14
s14 20.666 14 33.999v288c0 13.333 -3.33301 28 -10 44s-14.667 28.667 -24 38zM416.001 31.999h-320v384h208c4 0 9.33301 -1.33301 16 -4v-92h92c2.66699 -6.66699 4 -12 4 -16v-272z" />
    <glyph unicode="&#xe04f;" 
d="M446 386l-59.999 59.999c-9.33301 9.33301 -22 17.333 -38 24s-30.667 10 -44 10h-224c-13.333 0 -24.666 -4.66699 -33.999 -14s-14 -20.666 -14 -33.999v-416c0 -13.333 4.66699 -24.666 14 -33.999s20.666 -14 33.999 -14h352c13.333 0 24.666 4.66699 33.999 14
s14 20.666 14 33.999v288c0 13.333 -3.33301 28 -10 44s-14.667 28.667 -24 38zM320.001 411.999c1.33301 0 2.33398 -0.333984 3.00098 -1.00098c8.66699 -3.33301 14.667 -6.66602 18 -9.99902l60 -60c3.33301 -3.33301 6.66602 -9.33301 9.99902 -18
c0.666992 -0.666992 1 -1.66699 1 -3h-92v92zM416.002 31.998h-320v384h192v-128h128v-256z" />
    <glyph unicode="&#xe050;" 
d="M446 386l-59.999 59.999c-9.33301 9.33301 -22 17.333 -38 24s-30.667 10 -44 10h-224c-13.333 0 -24.666 -4.66699 -33.999 -14s-14 -20.666 -14 -33.999v-416c0 -13.333 4.66699 -24.666 14 -33.999s20.666 -14 33.999 -14h352c13.333 0 24.666 4.66699 33.999 14
s14 20.666 14 33.999v288c0 13.333 -3.33301 28 -10 44s-14.667 28.667 -24 38zM320.001 411.999c1.33301 0 2.33398 -0.333984 3.00098 -1.00098c8.66699 -3.33301 14.667 -6.66602 18 -9.99902l60 -60c3.33301 -3.33301 6.66602 -9.33301 9.99902 -18
c0.666992 -0.666992 1 -1.66699 1 -3h-92v92zM416.002 31.998h-320v384h192v-128h128v-256zM128.002 223.998h256v-32h-256v32zM128.002 159.998h256v-32h-256v32zM128.002 95.998h256v-32h-256v32z" />
    <glyph unicode="&#xe051;" 
d="M352 480h-320v-512h448v384zM448 0h-384v448h288v-96h96v-352z" />
    <glyph unicode="&#xe052;" 
d="M352 480h-320v-512h448v384zM448 0h-384v448h288v-96h96v-352zM128 96h256v-32h-256v32zM128 160h256v-32h-256v32zM128 224h256v-32h-256v32z" />
    <glyph unicode="&#xe053;" 
d="M448 96v64h-64v-64h-64v-64h64v-64h64v64h64v64h-64zM32 448h288v-96h96v-160h32v160l-128 128h-320v-512h288v32h-256v448z" />
    <glyph unicode="&#xe054;" 
d="M320 96h192v-64h-192v64zM32 448h288v-96h96v-160h32v160l-128 128h-320v-512h288v32h-256v448z" />
    <glyph unicode="&#xe055;" 
d="M288 256h-96v-160h-80l128 -128l128 128h-80v160zM320 480h-288v-192l16 -320l16 320v160h256v-96h96v-64l16 -320l16 320v64z" />
    <glyph unicode="&#xe056;" 
d="M192 -32h96v160h80l-128 128l-128 -128h80v-160zM320 480h-288v-192l16 -320l16 320v160h256v-96h96v-64l16 -320l16 320v64z" />
    <glyph unicode="&#xe057;" 
d="M352 -32l-96 112l41 41l55 -56l128 127l32 -32zM32 448h288v-96h96v-160h32v160l-128 128h-320v-512h288v32h-256v448z" />
    <glyph unicode="&#xe058;" 
d="M32 448h288v-96h96v-160h32v160l-128 128h-320v-512h288v32h-256v448zM461 64l51 51v45h-45l-51 -51l-51 51h-45v-45l51 -51l-51 -51v-45h45l51 51l51 -51h45v45z" />
    <glyph unicode="&#xe059;" 
d="M452 380l-71.999 72.002c-7.33301 7.33301 -17.833 13.833 -31.5 19.5s-25.834 8.5 -36.501 8.5h-240c-10.667 0 -20 -4 -28 -12s-12 -17.333 -12 -28v-432c0 -10.667 4 -20 12 -28s17.333 -12 28 -12h368c10.667 0 20 4 28 12s12 17.333 12 28v304
c0 11.333 -2.83301 23.666 -8.5 36.999s-12.167 23.666 -19.5 30.999zM429.001 358.002c1.33301 -2 3 -4 5 -6h-82v82c2 -2 4 -3.66699 6 -5zM448.001 8.00195c0 -5.33301 -2.66797 -7.99902 -8.00098 -7.99902h-368c-5.33301 0 -8 2.66699 -8 8v432
c0 5.33301 2.66699 8 8 8h240c2.66699 0 5.33398 -0.333008 8.00098 -1v-127h127c0.666992 -2.66699 1 -5.33398 1 -8.00098v-304z" />
    <glyph unicode="&#xe05a;" 
d="M416 352h-96v32l-96 96h-224v-384h192v-128h320v288zM416 307l51 -51h-51v51zM224 435l51 -51h-51v51zM32 448h160v-96h96v-224h-256v320zM480 0h-256v96h96v224h64v-96h96v-224z" />
    <glyph unicode="&#xe05b;" 
d="M432 416h-32v-32h16v-256h-128v-128h-192v384h16v32h-32c-4.66699 0 -8.5 -1.5 -11.5 -4.5s-4.5 -6.83301 -4.5 -11.5v-416c0 -4.66699 1.5 -8.5 4.5 -11.5s6.83301 -4.5 11.5 -4.5h252l116 116v316c0 4.66699 -1.5 8.5 -4.5 11.5s-6.83301 4.5 -11.5 4.5zM320 0v96h96z
M384 416h-64v32c0 8.66699 -3.16699 16.167 -9.5 22.5s-13.833 9.5 -22.5 9.5h-64c-8.66699 0 -16.167 -3.16699 -22.5 -9.5s-9.5 -13.833 -9.5 -22.5v-32h-64v-64h256v64zM288 416h-64v32h64v-32z" />
    <glyph unicode="&#xe05c;" 
d="M432 416c4.66699 0 8.5 -1.5 11.5 -4.5s4.5 -6.83301 4.5 -11.5v-304l-128 -128h-240c-4.66699 0 -8.5 1.5 -11.5 4.5s-4.5 6.83301 -4.5 11.5v416c0 4.66699 1.5 8.5 4.5 11.5s6.83301 4.5 11.5 4.5h32v-32h-16v-384h192v128h128v256h-16v32h32zM384 416h-64v32
c0 8.66699 -3.16699 16.167 -9.5 22.5s-13.833 9.5 -22.5 9.5h-64c-8.66699 0 -16.167 -3.16699 -22.5 -9.5s-9.5 -13.833 -9.5 -22.5v-32h-64v-64h256v64zM288 416h-64v32h64v-32z" />
    <glyph unicode="&#xe05d;" 
d="M320 352v128h-224l-96 -96v-288h192v-128h320v384h-192zM96 435v-51h-51zM32 128v224h96v96h160v-96l-96 -96v-128h-160zM288 307v-51h-51zM480 0h-256v224h96v96h160v-320z" />
    <glyph unicode="&#xe05e;" 
d="M352 416h-64v32c0 8.66699 -3.16699 16.167 -9.5 22.5s-13.833 9.5 -22.5 9.5h-64c-8.66699 0 -16.167 -3.16699 -22.5 -9.5s-9.5 -13.833 -9.5 -22.5v-32h-64v-64h256v64zM256 416h-64v32h64v-32zM416 320v80c0 4.66699 -1.5 8.5 -4.5 11.5s-6.83301 4.5 -11.5 4.5h-32
v-32h16v-64h-192v-224h-128v288h16v32h-32c-4.66699 0 -8.5 -1.5 -11.5 -4.5s-4.5 -6.83301 -4.5 -11.5v-320c0 -4.66699 1.5 -8.5 4.5 -11.5s6.83301 -4.5 11.5 -4.5h144v-96h224l96 96v256h-96zM416 13v51h51zM480 96h-96v-96h-160v288h256v-192z" />
    <glyph unicode="&#xe05f;" 
d="M416 320v80c0 4.66699 -1.5 8.5 -4.5 11.5s-6.83301 4.5 -11.5 4.5h-112v32c0 8.66699 -3.16699 16.167 -9.5 22.5s-13.833 9.5 -22.5 9.5h-64c-8.66699 0 -16.167 -3.16699 -22.5 -9.5s-9.5 -13.833 -9.5 -22.5v-32h-112c-4.66699 0 -8.5 -1.5 -11.5 -4.5
s-4.5 -6.83301 -4.5 -11.5v-320c0 -4.66699 1.5 -8.5 4.5 -11.5s6.83301 -4.5 11.5 -4.5h144v-96h224l96 96v256h-96zM192 448h64v-32h-64v32zM96 352v32h256v-32h-256zM416 13v51h51zM480 96h-96v-96h-160v288h256v-192z" />
    <glyph unicode="&#xe060;" 
d="M352 416h-64v32c0 8.66699 -3.16699 16.167 -9.5 22.5s-13.833 9.5 -22.5 9.5h-64c-8.66699 0 -16.167 -3.16699 -22.5 -9.5s-9.5 -13.833 -9.5 -22.5v-32h-64v-64h256v64zM256 416h-64v32h64v-32zM416 320v80c0 4.66699 -1.5 8.5 -4.5 11.5s-6.83301 4.5 -11.5 4.5h-32
v-32h16v-64h-96l-96 -96v-128h-128v288h16v32h-32c-4.66699 0 -8.5 -1.5 -11.5 -4.5s-4.5 -6.83301 -4.5 -11.5v-320c0 -4.66699 1.5 -8.5 4.5 -11.5s6.83301 -4.5 11.5 -4.5h144v-96h320v352h-96zM288 275v-51h-51zM480 0h-256v192h96v96h160v-288z" />
    <glyph unicode="&#xe061;" 
d="M512 320l-256 128l-256 -128l256 -128zM256 406l171 -86l-171 -86l-171 86zM461 250l51 -26l-256 -128l-256 128l51 26l205 -103zM461 154l51 -26l-256 -128l-256 128l51 26l205 -103z" />
    <glyph unicode="&#xe062;" 
d="M0 320h512l-32 -320h-448zM464 384l16 -32h-448l32 64h176l16 -32h208z" />
    <glyph unicode="&#xe063;" 
d="M480 352h-448l32 64h176l16 -32h208zM0 320l32 -320h448l32 320h-512zM256 16l-144 144h112v96h64v-96h112z" />
    <glyph unicode="&#xe064;" 
d="M480 352h-448l32 64h176l16 -32h208zM0 320l32 -320h448l32 320h-512zM288 128v-96h-64v96h-112l144 144l144 -144h-112z" />
    <glyph unicode="&#xe065;" 
d="M480 352h-448l32 64h176l16 -32h208zM250 80c0 -28.667 7.66602 -55.334 22.999 -80.001h-241l-32 320h512l-13 -128c-28 25.333 -61 38 -99 38c-41.333 0 -76.666 -14.667 -105.999 -44s-44 -64.666 -44 -105.999zM399.999 192c-30.667 0 -57 -11 -79 -33
s-33 -48.333 -33 -79s11 -57 33 -79s48.333 -33 79 -33s57 11 79 33s33 48.333 33 79s-11 57 -33 79s-48.333 33 -79 33zM415.999 64v-64h-32v64h-64v32h64v64h32v-64h64v-32h-64z" />
    <glyph unicode="&#xe066;" 
d="M480 352h-448l32 64h176l16 -32h208zM0 320l32 -320h448l32 320h-512zM352 128h-64v-64h-64v64h-64v64h64v64h64v-64h64v-64z" />
    <glyph unicode="&#xe067;" 
d="M480 352h-448l32 64h176l16 -32h208zM250 80c0 -28.667 7.66602 -55.334 22.999 -80.001h-241l-32 320h512l-13 -128c-28 25.333 -61 38 -99 38c-41.333 0 -76.666 -14.667 -105.999 -44s-44 -64.666 -44 -105.999zM399.999 192c-30.667 0 -57 -11 -79 -33
s-33 -48.333 -33 -79s11 -57 33 -79s48.333 -33 79 -33s57 11 79 33s33 48.333 33 79s-11 57 -33 79s-48.333 33 -79 33zM319.999 64v32h160v-32h-160z" />
    <glyph unicode="&#xe068;" 
d="M480 352h-448l32 64h176l16 -32h208zM0 320l32 -320h448l32 320h-512zM352 128h-192v64h192v-64z" />
    <glyph unicode="&#xe069;" 
d="M480 352h-448l32 64h176l16 -32h208zM0 320l32 -320h448l32 320h-512zM215 53l-103 118l30 30l73 -58l137 122l30 -30z" />
    <glyph unicode="&#xe06a;" 
d="M480 352h-448l32 64h176l16 -32h208zM0 320l32 -320h448l32 320h-512zM352 222l-62 -62l62 -62v-34h-34l-62 62l-62 -62h-34v34l62 62l-62 62v34h34l62 -62l62 62h34v-34z" />
    <glyph unicode="&#xe06b;" 
d="M224 416l64 -64h224v-352h-512v416h224z" />
    <glyph unicode="&#xe06c;" 
d="M416 0l96 256h-416l-96 -256h416zM64 288l-64 -288v416h144l64 -64h208v-64h-352z" />
    <glyph unicode="&#xe06d;" 
d="M288 352l-64 64h-224v-416h512v352h-224zM352 128h-64v-64h-64v64h-64v64h64v64h64v-64h64v-64z" />
    <glyph unicode="&#xe06e;" 
d="M288 352l-64 64h-224v-416h512v352h-224zM352 128h-192v64h192v-64z" />
    <glyph unicode="&#xe06f;" 
d="M288 352l-64 64h-224v-416h512v352h-224zM256 32l-128 128h96v128h64v-128h96z" />
    <glyph unicode="&#xe070;" 
d="M288 352l-64 64h-224v-416h224v128h-96l128 128l128 -128h-96v-128h224v352h-224z" />
    <glyph unicode="&#xe071;" 
d="M492 352h-472c-6.66699 0 -11.834 -2.33301 -15.501 -7s-5.16699 -10.334 -4.5 -17.001l59 -272c1.33301 -6.66699 4.83301 -12.334 10.5 -17.001s11.834 -7 18.501 -7h336c6.66699 0 12.834 2.33301 18.501 7s9.16699 10.334 10.5 17.001l59 272
c0.666992 6.66699 -0.833008 12.334 -4.5 17.001s-8.83398 7 -15.501 7zM448 392c0 6.66699 -2.33105 12.334 -6.99805 17.001s-10.334 7 -17.001 7h-216l-16 32h-104c-6.66699 0 -12.334 -2.33301 -17.001 -7s-7 -10.334 -7 -17.001v-56h384v24z" />
    <glyph unicode="&#xe072;" 
d="M492 288c6.66699 0 11.834 -2.33301 15.501 -7s5.16699 -10.334 4.5 -17.001l-59 -208c-1.33301 -6.66699 -4.83301 -12.334 -10.5 -17.001s-11.834 -7 -18.501 -7h-336c-6.66699 0 -12.834 2.33301 -18.501 7s-9.16699 10.334 -10.5 17.001l-59 208
c-0.666992 6.66699 0.833008 12.334 4.5 17.001s8.83398 7 15.501 7h472zM448 392l-0.00195312 -72h-384v104c0 6.66699 2.33301 12.334 7 17.001s10.334 7 17.001 7h104l16 -32h216c6.66699 0 12.334 -2.33301 17.001 -7s7 -10.334 7 -17.001z" />
    <glyph unicode="&#xe073;" 
d="M32 480v-512h448v512h-448zM448 0h-384v448h384v-448zM96 384h160v-32h-160v32zM96 320h160v-32h-160v32zM96 256h160v-32h-160v32zM96 192h160v-32h-160v32zM96 128h160v-32h-160v32zM96 64h320v-32h-320v32zM384 256v-160l-32 48l-32 -48v160h64zM416 371l-19 -19
l19 -19v-13h-32v-32h-13l-19 19l-19 -19h-13v32h-32v13l19 19l-19 19v13h32v32h13l19 -19l19 19h13v-32h32v-13z" />
    <glyph unicode="&#xe074;" 
d="M256 480c-71.333 0 -131.333 -24.666 -180 -73.999c-50.667 -51.333 -76 -112 -76 -182s25 -130 75 -180c50.667 -50.667 111 -76 181 -76s131 25.333 183 76c48.667 48 73 108 73 180c0 71.333 -24.667 131.666 -74 180.999c-50 50 -110.667 75 -182 75zM256 434.001
c58 0 107.667 -20.668 149 -62.001c40 -40 60 -89.333 60 -148s-19.667 -107.667 -59 -147c-42.667 -41.333 -92.667 -62 -150 -62c-56.667 0 -105.667 20.667 -147 62s-62 90.333 -62 147s20.667 106.334 62 149.001c40 40.667 89 61 147 61zM253 267
c-13.333 24 -36 36.001 -68 36.001c-21.333 0 -39.166 -7.16699 -53.499 -21.5s-21.5 -33.5 -21.5 -57.5c0 -24.667 7 -44 21 -58s32.667 -21 56 -21c29.333 0 51.666 13.333 66.999 40l-32 16c-6 -14.667 -16.333 -22 -31 -22c-11.333 0 -20 4.16699 -26 12.5
s-9 19.166 -9 32.499c0 30 11.667 45 35 45c12 0 21.333 -6.66699 28 -20zM401 267.001c-13.333 24 -36.002 36.001 -68.002 36.001c-21.333 0 -39.166 -7.16699 -53.499 -21.5s-21.5 -33.5 -21.5 -57.5c0 -24.667 7 -44 21 -58s32.333 -21 55 -21c30 0 52.667 13.333 68 40
l-32 16c-6 -14.667 -16.667 -22 -32 -22c-11.333 0 -19.833 4.16699 -25.5 12.5s-8.5 19.166 -8.5 32.499c0 30 11.333 45 34 45c12.667 0 22.334 -6.66699 29.001 -20z" />
    <glyph unicode="&#xe075;" 
d="M272 480l-272 -272l240 -240l272 272v240h-240zM400 320c-13.333 0 -24.666 4.66699 -33.999 14s-14 20.666 -14 33.999s4.66699 24.666 14 33.999s20.666 14 33.999 14s24.666 -4.66699 33.999 -14s14 -20.666 14 -33.999s-4.66699 -24.666 -14 -33.999
s-20.666 -14 -33.999 -14z" />
    <glyph unicode="&#xe076;" 
d="M464 480l-144.001 0.000976562c-13.333 0 -28 -3.33301 -44 -10s-28.667 -14.667 -38 -24l-224 -224c-9.33301 -9.33301 -14 -20.5 -14 -33.5s4.66699 -24.5 14 -34.5l172 -172c10 -9.33301 21.5 -14 34.5 -14s24.167 4.66699 33.5 14l224 224
c9.33301 9.33301 17.333 22 24 38s10 30.667 10 44v144c0 13.333 -4.66699 24.666 -14 33.999s-20.666 14 -33.999 14zM399.999 320.001c-13.333 0 -24.666 4.66699 -33.999 14s-14 20.666 -14 33.999s4.66699 24.666 14 33.999s20.666 14 33.999 14
s24.666 -4.66699 33.999 -14s14 -20.666 14 -33.999s-4.66699 -24.666 -14 -33.999s-20.666 -14 -33.999 -14z" />
    <glyph unicode="&#xe077;" 
d="M448 416h-149l-208 -208l149 -149l208 208v149zM512 480v-240l-272 -272l-240 240l272 272h240zM320 336c0 13.333 4.66699 24.666 14 33.999s20.666 14 33.999 14s24.666 -4.66699 33.999 -14s14 -20.666 14 -33.999s-4.66699 -24.666 -14 -33.999
s-20.666 -14 -33.999 -14s-24.666 4.66699 -33.999 14s-14 20.666 -14 33.999z" />
    <glyph unicode="&#xe078;" 
d="M448 416h-128c-4.66699 0 -11.167 -1.66699 -19.5 -5s-14.166 -6.66602 -17.499 -9.99902l-212 -213l149 -149l213 212c3.33301 3.33301 6.66602 9.16602 9.99902 17.499s5 14.833 5 19.5v128zM464 480c13.333 0 24.667 -4.66797 34 -14.001s14 -20.666 14 -33.999v-144
c0 -13.333 -3.33301 -28 -10 -44s-14.667 -28.667 -24 -38l-224 -224c-9.33301 -9.33301 -20.5 -14 -33.5 -14s-24.5 4.66699 -34.5 14l-172 172c-9.33301 10 -14 21.5 -14 34.5s4.66699 24.167 14 33.5l224 224c9.33301 9.33301 22 17.333 38 24s30.667 10 44 10h144z
M320.001 335.999c0 13.333 4.66699 24.666 14 33.999s20.666 14 33.999 14s24.666 -4.66699 33.999 -14s14 -20.666 14 -33.999s-4.66699 -24.666 -14 -33.999s-20.666 -14 -33.999 -14s-24.666 4.66699 -33.999 14s-14 20.666 -14 33.999z" />
    <glyph unicode="&#xe079;" horiz-adv-x="544" 
d="M496 448l-111.999 -0.000976562c-13.333 0 -28 -3.33301 -44 -10s-28.667 -14.667 -38 -24l-188 -188c-9.33301 -9.33301 -14 -20.666 -14 -33.999s4.66699 -24.666 14 -33.999l140 -140c9.33301 -9.33301 20.666 -14 33.999 -14s24.666 4.66699 33.999 14l188 188
c9.33301 9.33301 17.333 22 24 38s10 30.667 10 44v112c0 13.333 -4.66699 24.666 -14 33.999s-20.666 14 -33.999 14zM432.001 287.999c-13.333 0 -24.666 4.66699 -33.999 14s-14 20.666 -14 33.999s4.66699 24.666 14 33.999s20.666 14 33.999 14
s24.666 -4.66699 33.999 -14s14 -20.666 14 -33.999s-4.66699 -24.666 -14 -33.999s-20.666 -14 -33.999 -14zM43.001 180.999l172 -171.999c-9.33301 -4.66699 -19.333 -6.16699 -30 -4.5s-19.667 6.16699 -27 13.5l-140 140c-9.33301 9.33301 -14 20.666 -14 33.999
s4.66699 24.666 14 33.999l188 188c9.33301 9.33301 22 17.333 38 24s30.667 10 44 10l-245 -245c-7.33301 -7.33301 -7.33301 -14.666 0 -21.999z" />
    <glyph unicode="&#xe07a;" horiz-adv-x="544" 
d="M480 384h-96c-4.66699 0 -11.167 -1.66699 -19.5 -5s-14.166 -6.66602 -17.499 -9.99902l-176 -177l117 -117l177 176c3.33301 3.33301 6.66602 9.16602 9.99902 17.499s5 14.833 5 19.5v96zM496 448c13.333 0 24.665 -4.66602 33.998 -13.999s14 -20.666 14 -33.999
v-112c0 -13.333 -3.33301 -28 -10 -44s-14.667 -28.667 -24 -38l-188 -188c-9.33301 -9.33301 -20.666 -14 -33.999 -14s-24.666 4.66699 -33.999 14l-140 140c-9.33301 9.33301 -14 20.666 -14 33.999s4.66699 24.666 14 33.999l188 188c9.33301 9.33301 22 17.333 38 24
s30.667 10 44 10h112zM42.999 181.001l172 -171.999c-9.33301 -4.66699 -19.333 -6.16699 -30 -4.5s-19.667 6.16699 -27 13.5l-140 140c-9.33301 9.33301 -14 20.666 -14 33.999s4.66699 24.666 14 33.999l188 188c9.33301 9.33301 22 17.333 38 24s30.667 10 44 10
l-245 -245c-7.33301 -7.33301 -7.33301 -14.666 0 -21.999zM383.999 320.002c0 8.66699 3.16699 16.167 9.5 22.5s13.833 9.5 22.5 9.5s16.167 -3.16699 22.5 -9.5s9.5 -13.833 9.5 -22.5s-3.16699 -16.167 -9.5 -22.5s-13.833 -9.5 -22.5 -9.5s-16.167 3.16699 -22.5 9.5
s-9.5 13.833 -9.5 22.5z" />
    <glyph unicode="&#xe07b;" 
d="M192 224h32v-64h-32v64zM256 128h32v-64h-32v64zM400 337l-114.998 126c-10.667 11.333 -23.334 17 -38.001 17h-14c-14.667 0 -27.334 -5.66699 -38.001 -17l-115 -126c-10.667 -11.333 -16 -25 -16 -41v-304c0 -6.66699 2.16699 -12.334 6.5 -17.001s9.5 -7 15.5 -7
h308c6 0 11.167 2.33301 15.5 7s6.5 10.334 6.5 17.001v304c0 16 -5.33301 29.667 -16 41zM320.002 224h-64v-64h64v-8v-24v-64v-24v-8h-64v-32h-32v32h-64v32h64v64h-64v16v16v64v32h32h32v32h32v-32h64v-32zM265.002 400c0 -6.66699 -2.5 -12.5 -7.5 -17.5
s-10.833 -7.5 -17.5 -7.5s-12.5 2.5 -17.5 7.5s-7.5 10.833 -7.5 17.5s2.5 12.5 7.5 17.5s10.833 7.5 17.5 7.5s12.5 -2.5 17.5 -7.5s7.5 -10.833 7.5 -17.5z" />
    <glyph unicode="&#xe07c;" 
d="M0 384h64v-320h-64v320zM96 384h32v-320h-32v320zM160 384h32v-320h-32v320zM256 384h32v-320h-32v320zM384 384h32v-320h-32v320zM480 384h32v-320h-32v320zM320 384h16v-320h-16v320zM224 384h16v-320h-16v320zM432 384h16v-320h-16v320z" />
    <glyph unicode="&#xe07d;" 
d="M0 416h64v-320h-64v320zM96 416h32v-320h-32v320zM160 416h32v-320h-32v320zM256 416h32v-320h-32v320zM384 416h32v-320h-32v320zM480 416h32v-320h-32v320zM320 416h16v-320h-16v320zM224 416h16v-320h-16v320zM432 416h16v-320h-16v320zM0 64h32v-32h-32v32zM96 64h32
v-32h-32v32zM160 64h32v-32h-32v32zM320 64h32v-32h-32v32zM480 64h32v-32h-32v32zM384 64h64v-32h-64v32zM224 64h64v-32h-64v32z" />
    <glyph unicode="&#xe07e;" 
d="M160 448h-128v-128h128v128zM192 480v-192h-192v192h192zM64 416h64v-64h-64v64zM480 448h-128v-128h128v128zM512 480v-192h-192v192h192zM384 416h64v-64h-64v64zM160 128h-128v-128h128v128zM192 160v-192h-192v192h192zM64 96h64v-64h-64v64zM224 480h32v-32h-32v32z
M256 448h32v-32h-32v32zM224 416h32v-32h-32v32zM256 384h32v-32h-32v32zM224 352h32v-32h-32v32zM256 320h32v-32h-32v32zM224 288h32v-32h-32v32zM224 224h32v-32h-32v32zM256 192h32v-32h-32v32zM224 160h32v-32h-32v32zM256 128h32v-32h-32v32zM224 96h32v-32h-32v32z
M256 64h32v-32h-32v32zM224 32h32v-32h-32v32zM256 0h32v-32h-32v32zM480 224h32v-32h-32v32zM32 224h32v-32h-32v32zM64 256h32v-32h-32v32zM0 256h32v-32h-32v32zM128 256h32v-32h-32v32zM160 224h32v-32h-32v32zM192 256h32v-32h-32v32zM288 224h32v-32h-32v32zM320 256
h32v-32h-32v32zM352 224h32v-32h-32v32zM384 256h32v-32h-32v32zM416 224h32v-32h-32v32zM448 256h32v-32h-32v32zM480 160h32v-32h-32v32zM288 160h32v-32h-32v32zM320 192h32v-32h-32v32zM352 160h32v-32h-32v32zM416 160h32v-32h-32v32zM448 192h32v-32h-32v32zM480 96
h32v-32h-32v32zM288 96h32v-32h-32v32zM320 128h32v-32h-32v32zM384 128h32v-32h-32v32zM416 96h32v-32h-32v32zM448 128h32v-32h-32v32zM480 32h32v-32h-32v32zM320 64h32v-32h-32v32zM352 32h32v-32h-32v32zM384 64h32v-32h-32v32zM416 32h32v-32h-32v32zM320 0h32v-32
h-32v32zM384 0h32v-32h-32v32zM448 0h32v-32h-32v32z" />
    <glyph unicode="&#xe07f;" 
d="M288 320l64 -64l-128 -128l-64 64zM501 331l-37 37l-16 -16c-8.66699 -8.66699 -19.334 -13 -32.001 -13s-23.334 4.33301 -32.001 13s-13 19.334 -13 32.001s4.33301 23.334 13 32.001l16 16l-37 37c-7.33301 7.33301 -16.333 11 -27 11s-19.667 -3.66699 -27 -11
l-298 -298c-7.33301 -7.33301 -11 -16.333 -11 -27s3.66699 -19.667 11 -27l37 -37l16 16c8.66699 8.66699 19.334 13 32.001 13s23.334 -4.33301 32.001 -13s13 -19.334 13 -32.001s-4.33301 -23.334 -13 -32.001l-16 -16l37 -37c7.33301 -7.33301 16.333 -11 27 -11
s19.667 3.66699 27 11l298 298c7.33301 7.33301 11 16.333 11 27s-3.66699 19.667 -11 27zM224 64l-128 128l192 192l128 -128z" />
    <glyph unicode="&#xe080;" 
d="M64 16c0 13.333 4.66699 24.666 14 33.999s20.666 14 33.999 14s24.666 -4.66699 33.999 -14s14 -20.666 14 -33.999s-4.66699 -24.666 -14 -33.999s-20.666 -14 -33.999 -14s-24.666 4.66699 -33.999 14s-14 20.666 -14 33.999zM384 16
c0 13.333 4.66699 24.666 14 33.999s20.666 14 33.999 14s24.666 -4.66699 33.999 -14s14 -20.666 14 -33.999s-4.66699 -24.666 -14 -33.999s-20.666 -14 -33.999 -14s-24.666 4.66699 -33.999 14s-14 20.666 -14 33.999zM480 224v192.001h-416
c0 18 -6.16699 33.167 -18.5 45.5s-27.5 18.5 -45.5 18.5v-32c8.66699 0 16.167 -3.16699 22.5 -9.5s9.5 -13.833 9.5 -22.5l24 -206c-16 -12.667 -24 -29.334 -24 -50.001c0 -18 6.16699 -33.167 18.5 -45.5s27.5 -18.5 45.5 -18.5h384v32h-384
c-8.66699 0 -16.167 3.16699 -22.5 9.5s-9.5 13.833 -9.5 22.5v0z" />
    <glyph unicode="&#xe081;" 
d="M424 192c8.66699 0 17.001 2.99902 25.001 8.99902s13 13.333 15 22l47 162c2 8.66699 0.833008 16 -3.5 22s-10.833 9 -19.5 9h-328c0 18 -6.16699 33.167 -18.5 45.5s-27.5 18.5 -45.5 18.5h-96v-64h96v-272c0 -13.333 4.66699 -24.666 14 -33.999
s20.666 -14 33.999 -14h304c8.66699 0 16.167 3.16699 22.5 9.5s9.5 13.833 9.5 22.5s-3.16699 16.167 -9.5 22.5s-13.833 9.5 -22.5 9.5h-288v32h264zM160.001 351.999h289l-27 -96h-262v96zM192.001 7.99902c0 -10.667 -4 -20 -12 -28s-17.333 -12 -28 -12h-16
c-10.667 0 -20 4 -28 12s-12 17.333 -12 28v16c0 10.667 4 20 12 28s17.333 12 28 12h16c10.667 0 20 -4 28 -12s12 -17.333 12 -28v-16zM480.001 7.99902c0 -10.667 -4 -20 -12 -28s-17.333 -12 -28 -12h-16c-10.667 0 -20 4 -28 12s-12 17.333 -12 28v16
c0 10.667 4 20 12 28s17.333 12 28 12h16c10.667 0 20 -4 28 -12s12 -17.333 12 -28v-16z" />
    <glyph unicode="&#xe082;" 
d="M489 382.5c8.66699 -2.33301 14.998 -7.33203 18.998 -14.999s5 -15.834 3 -24.501l-64 -224c-2 -6.66699 -5.83301 -12.167 -11.5 -16.5s-12.167 -6.5 -19.5 -6.5h-272c-8 0 -15 2.66699 -21 8s-9.66699 12 -11 20l-28 228h-52c-8.66699 0 -16.167 3.16699 -22.5 9.5
s-9.5 13.833 -9.5 22.5s3.16699 16.167 9.5 22.5s13.833 9.5 22.5 9.5h80c8 0 15 -2.66699 21 -8s9.66699 -12 11 -20l28 -228h220l57 201c2.66699 8.66699 7.83398 15 15.501 19s15.834 4.83301 24.501 2.5zM127.998 16.001c0 13.333 4.66699 24.666 14 33.999
s20.666 14 33.999 14s24.666 -4.66699 33.999 -14s14 -20.666 14 -33.999s-4.66699 -24.666 -14 -33.999s-20.666 -14 -33.999 -14s-24.666 4.66699 -33.999 14s-14 20.666 -14 33.999zM319.998 16.001c0 13.333 4.66699 24.666 14 33.999s20.666 14 33.999 14
s24.666 -4.66699 33.999 -14s14 -20.666 14 -33.999s-4.66699 -24.666 -14 -33.999s-20.666 -14 -33.999 -14s-24.666 4.66699 -33.999 14s-14 20.666 -14 33.999z" />
    <glyph unicode="&#xe083;" 
d="M489 382.5c-8.66699 2.33301 -16.832 1.49902 -24.499 -2.50098s-12.834 -10.333 -15.501 -19l-2 -9h-299l-4 36c-1.33301 8 -5 14.667 -11 20s-13 8 -21 8h-80c-8.66699 0 -16.167 -3.16699 -22.5 -9.5s-9.5 -13.833 -9.5 -22.5s3.16699 -16.167 9.5 -22.5
s13.833 -9.5 22.5 -9.5h52l28 -228c1.33301 -8 5 -14.667 11 -20s13 -8 21 -8h272c7.33301 0 13.833 2.16699 19.5 6.5s9.5 9.83301 11.5 16.5l64 224c2 8.66699 1 16.834 -3 24.501s-10.333 12.667 -19 15zM256.002 223.999v32h64v-32h-64zM320.002 191.999v-32h-64v32h64z
M256.002 287.999v32h64v-32h-64zM152.002 319.999h72v-32h-68zM160.002 255.999h64v-32h-60zM168.002 191.999h56v-32h-52zM392.002 159.999h-40v32h49zM410.002 223.999h-58v32h67zM428.002 287.999h-76v32h86zM128.002 15.999c0 13.333 4.66699 24.666 14 33.999
s20.666 14 33.999 14s24.666 -4.66699 33.999 -14s14 -20.666 14 -33.999s-4.66699 -24.666 -14 -33.999s-20.666 -14 -33.999 -14s-24.666 4.66699 -33.999 14s-14 20.666 -14 33.999zM320.002 15.999c0 13.333 4.66699 24.666 14 33.999s20.666 14 33.999 14
s24.666 -4.66699 33.999 -14s14 -20.666 14 -33.999s-4.66699 -24.666 -14 -33.999s-20.666 -14 -33.999 -14s-24.666 4.66699 -33.999 14s-14 20.666 -14 33.999z" />
    <glyph unicode="&#xe084;" 
d="M489 382.5c-8.66699 2.33301 -16.832 1.49902 -24.499 -2.50098s-12.834 -10.333 -15.501 -19l-2 -9h-299l-4 36c-1.33301 8 -5 14.667 -11 20s-13 8 -21 8h-80c-8.66699 0 -16.167 -3.16699 -22.5 -9.5s-9.5 -13.833 -9.5 -22.5s3.16699 -16.167 9.5 -22.5
s13.833 -9.5 22.5 -9.5h52l28 -228c1.33301 -8 5 -14.667 11 -20s13 -8 21 -8h272c7.33301 0 13.833 2.16699 19.5 6.5s9.5 9.83301 11.5 16.5l64 224c2 8.66699 1 16.834 -3 24.501s-10.333 12.667 -19 15zM438.002 319.999l-10 -32h-272l-4 32h286zM419.002 255.999
l-9 -32h-246l-4 32h259zM172.002 159.999l-4 32h233l-9 -32h-220zM128.002 15.999c0 13.333 4.66699 24.666 14 33.999s20.666 14 33.999 14s24.666 -4.66699 33.999 -14s14 -20.666 14 -33.999s-4.66699 -24.666 -14 -33.999s-20.666 -14 -33.999 -14
s-24.666 4.66699 -33.999 14s-14 20.666 -14 33.999zM320.002 15.999c0 13.333 4.66699 24.666 14 33.999s20.666 14 33.999 14s24.666 -4.66699 33.999 -14s14 -20.666 14 -33.999s-4.66699 -24.666 -14 -33.999s-20.666 -14 -33.999 -14s-24.666 4.66699 -33.999 14
s-14 20.666 -14 33.999z" />
    <glyph unicode="&#xe085;" 
d="M416 96l-272.002 0.000976562c-8 0 -15 2.66699 -21 8s-9.66699 12 -11 20l-28 228h-52c-8.66699 0 -16.167 3.16699 -22.5 9.5s-9.5 13.833 -9.5 22.5s3.16699 16.167 9.5 22.5s13.833 9.5 22.5 9.5h80c8 0 15 -2.66699 21 -8s9.66699 -12 11 -20l28 -228h220l57 201
c2.66699 8.66699 7.83398 15 15.501 19s15.834 4.83301 24.501 2.5s15 -7.33301 19 -15s5 -15.834 3 -24.501l-64 -224c-2 -6.66699 -5.83301 -12.167 -11.5 -16.5s-12.167 -6.5 -19.5 -6.5zM127.998 16.001c0 13.333 4.66699 24.666 14 33.999s20.666 14 33.999 14
s24.666 -4.66699 33.999 -14s14 -20.666 14 -33.999s-4.66699 -24.666 -14 -33.999s-20.666 -14 -33.999 -14s-24.666 4.66699 -33.999 14s-14 20.666 -14 33.999zM319.998 16.001c0 13.333 4.66699 24.666 14 33.999s20.666 14 33.999 14s24.666 -4.66699 33.999 -14
s14 -20.666 14 -33.999s-4.66699 -24.666 -14 -33.999s-20.666 -14 -33.999 -14s-24.666 4.66699 -33.999 14s-14 20.666 -14 33.999zM383.998 256.001h-64v-64h-64v64h-64v64h64v64h64v-64h64v-64z" />
    <glyph unicode="&#xe086;" 
d="M416 96l-272.002 0.000976562c-8 0 -15 2.66699 -21 8s-9.66699 12 -11 20l-28 228h-52c-8.66699 0 -16.167 3.16699 -22.5 9.5s-9.5 13.833 -9.5 22.5s3.16699 16.167 9.5 22.5s13.833 9.5 22.5 9.5h80c8 0 15 -2.66699 21 -8s9.66699 -12 11 -20l28 -228h220l57 201
c2.66699 8.66699 7.83398 15 15.501 19s15.834 4.83301 24.501 2.5s15 -7.33301 19 -15s5 -15.834 3 -24.501l-64 -224c-2 -6.66699 -5.83301 -12.167 -11.5 -16.5s-12.167 -6.5 -19.5 -6.5zM127.998 16.001c0 13.333 4.66699 24.666 14 33.999s20.666 14 33.999 14
s24.666 -4.66699 33.999 -14s14 -20.666 14 -33.999s-4.66699 -24.666 -14 -33.999s-20.666 -14 -33.999 -14s-24.666 4.66699 -33.999 14s-14 20.666 -14 33.999zM319.998 16.001c0 13.333 4.66699 24.666 14 33.999s20.666 14 33.999 14s24.666 -4.66699 33.999 -14
s14 -20.666 14 -33.999s-4.66699 -24.666 -14 -33.999s-20.666 -14 -33.999 -14s-24.666 4.66699 -33.999 14s-14 20.666 -14 33.999zM191.998 320.001h192v-64h-192v64z" />
    <glyph unicode="&#xe087;" 
d="M489 382.5c8.66699 -2.33301 14.998 -7.33203 18.998 -14.999s5 -15.834 3 -24.501l-64 -224c-2 -6.66699 -5.83301 -12.167 -11.5 -16.5s-12.167 -6.5 -19.5 -6.5h-272c-8 0 -15 2.66699 -21 8s-9.66699 12 -11 20l-28 228h-52c-8.66699 0 -16.167 3.16699 -22.5 9.5
s-9.5 13.833 -9.5 22.5s3.16699 16.167 9.5 22.5s13.833 9.5 22.5 9.5h80c8 0 15 -2.66699 21 -8s9.66699 -12 11 -20l28 -228h220l57 201c2.66699 8.66699 7.83398 15 15.501 19s15.834 4.83301 24.501 2.5zM127.998 16.001c0 13.333 4.66699 24.666 14 33.999
s20.666 14 33.999 14s24.666 -4.66699 33.999 -14s14 -20.666 14 -33.999s-4.66699 -24.666 -14 -33.999s-20.666 -14 -33.999 -14s-24.666 4.66699 -33.999 14s-14 20.666 -14 33.999zM319.998 16.001c0 13.333 4.66699 24.666 14 33.999s20.666 14 33.999 14
s24.666 -4.66699 33.999 -14s14 -20.666 14 -33.999s-4.66699 -24.666 -14 -33.999s-20.666 -14 -33.999 -14s-24.666 4.66699 -33.999 14s-14 20.666 -14 33.999zM181.998 320.001h74v96h64v-96h74l-106 -114z" />
    <glyph unicode="&#xe088;" 
d="M489 382.5c8.66699 -2.33301 14.998 -7.33203 18.998 -14.999s5 -15.834 3 -24.501l-64 -224c-2 -6.66699 -5.83301 -12.167 -11.5 -16.5s-12.167 -6.5 -19.5 -6.5h-272c-8 0 -15 2.66699 -21 8s-9.66699 12 -11 20l-28 228h-52c-8.66699 0 -16.167 3.16699 -22.5 9.5
s-9.5 13.833 -9.5 22.5s3.16699 16.167 9.5 22.5s13.833 9.5 22.5 9.5h80c8 0 15 -2.66699 21 -8s9.66699 -12 11 -20l28 -228h220l57 201c2.66699 8.66699 7.83398 15 15.501 19s15.834 4.83301 24.501 2.5zM127.998 16.001c0 13.333 4.66699 24.666 14 33.999
s20.666 14 33.999 14s24.666 -4.66699 33.999 -14s14 -20.666 14 -33.999s-4.66699 -24.666 -14 -33.999s-20.666 -14 -33.999 -14s-24.666 4.66699 -33.999 14s-14 20.666 -14 33.999zM319.998 16.001c0 13.333 4.66699 24.666 14 33.999s20.666 14 33.999 14
s24.666 -4.66699 33.999 -14s14 -20.666 14 -33.999s-4.66699 -24.666 -14 -33.999s-20.666 -14 -33.999 -14s-24.666 4.66699 -33.999 14s-14 20.666 -14 33.999zM393.998 288.001h-74v-96h-64v96h-74l106 114z" />
    <glyph unicode="&#xe089;" 
d="M416 96l-272.002 0.000976562c-8 0 -15 2.66699 -21 8s-9.66699 12 -11 20l-28 228h-52c-8.66699 0 -16.167 3.16699 -22.5 9.5s-9.5 13.833 -9.5 22.5s3.16699 16.167 9.5 22.5s13.833 9.5 22.5 9.5h80c8 0 15 -2.66699 21 -8s9.66699 -12 11 -20l28 -228h220l57 201
c2.66699 8.66699 7.83398 15 15.501 19s15.834 4.83301 24.501 2.5s15 -7.33301 19 -15s5 -15.834 3 -24.501l-64 -224c-2 -6.66699 -5.83301 -12.167 -11.5 -16.5s-12.167 -6.5 -19.5 -6.5zM127.998 16.001c0 13.333 4.66699 24.666 14 33.999s20.666 14 33.999 14
s24.666 -4.66699 33.999 -14s14 -20.666 14 -33.999s-4.66699 -24.666 -14 -33.999s-20.666 -14 -33.999 -14s-24.666 4.66699 -33.999 14s-14 20.666 -14 33.999zM319.998 16.001c0 13.333 4.66699 24.666 14 33.999s20.666 14 33.999 14s24.666 -4.66699 33.999 -14
s14 -20.666 14 -33.999s-4.66699 -24.666 -14 -33.999s-20.666 -14 -33.999 -14s-24.666 4.66699 -33.999 14s-14 20.666 -14 33.999zM428.998 403.001l-134 -178l-80 103l27 25l51 -46l114 115z" />
    <glyph unicode="&#xe08a;" 
d="M489 382.5c8.66699 -2.33301 14.998 -7.33203 18.998 -14.999s5 -15.834 3 -24.501l-64 -224c-2 -6.66699 -5.83301 -12.167 -11.5 -16.5s-12.167 -6.5 -19.5 -6.5h-272c-8 0 -15 2.66699 -21 8s-9.66699 12 -11 20l-28 228h-52c-8.66699 0 -16.167 3.16699 -22.5 9.5
s-9.5 13.833 -9.5 22.5s3.16699 16.167 9.5 22.5s13.833 9.5 22.5 9.5h80c8 0 15 -2.66699 21 -8s9.66699 -12 11 -20l28 -228h220l57 201c2.66699 8.66699 7.83398 15 15.501 19s15.834 4.83301 24.501 2.5zM127.998 16.001c0 13.333 4.66699 24.666 14 33.999
s20.666 14 33.999 14s24.666 -4.66699 33.999 -14s14 -20.666 14 -33.999s-4.66699 -24.666 -14 -33.999s-20.666 -14 -33.999 -14s-24.666 4.66699 -33.999 14s-14 20.666 -14 33.999zM319.998 16.001c0 13.333 4.66699 24.666 14 33.999s20.666 14 33.999 14
s24.666 -4.66699 33.999 -14s14 -20.666 14 -33.999s-4.66699 -24.666 -14 -33.999s-20.666 -14 -33.999 -14s-24.666 4.66699 -33.999 14s-14 20.666 -14 33.999zM402.998 251.001l-46 -46l-69 70l-69 -70l-46 46l70 69l-70 69l46 46l69 -70l69 70l46 -46l-70 -69z" />
    <glyph unicode="&#xe08b;" 
d="M406 288l-88 116c1.33301 4 2 8 2 12c0 8.66699 -3.16699 16.167 -9.5 22.5s-13.833 9.5 -22.5 9.5s-16.167 -3.16699 -22.5 -9.5s-9.5 -13.833 -9.5 -22.5s3.16699 -16.167 9.5 -22.5s13.833 -9.5 22.5 -9.5h4l74 -96h-220l74 96h4c8.66699 0 16.167 3.16699 22.5 9.5
s9.5 13.833 9.5 22.5s-3.16699 16.167 -9.5 22.5s-13.833 9.5 -22.5 9.5s-16.167 -3.16699 -22.5 -9.5s-9.5 -13.833 -9.5 -22.5c0 -4 0.666992 -8 2 -12l-88 -116h-106v-64h32l32 -256h384l32 256h32v64h-106zM160 32h-64v64h64v-64zM160 160h-64v64h64v-64zM288 32h-64v64
h64v-64zM288 160h-64v64h64v-64zM416 32h-64v64h64v-64zM416 160h-64v64h64v-64z" />
    <glyph unicode="&#xe08c;" 
d="M64 -32h383c2.66699 4.66699 6.16699 12.334 10.5 23.001s12 38 23 82s21.167 94.333 30.5 151h-511c9.33301 -56.667 19.333 -106.334 30 -149.001s19 -71 25 -85zM368 192h48v-192h-48v192zM277 192h48v-192h-48v192zM187 192h48v-192h-48v192zM96 192h48v-192h-48v192
zM438 320l-90 112c2.66699 5.33301 4 10.666 4 15.999c0 8.66699 -3.16699 16.167 -9.5 22.5s-13.833 9.5 -22.5 9.5s-16.167 -3.16699 -22.5 -9.5s-9.5 -13.833 -9.5 -22.5s3.16699 -16.167 9.5 -22.5s13.833 -9.5 22.5 -9.5c3.33301 0 6.33301 0.333008 9 1l78 -97h-302
l78 97c2.66699 -0.666992 5.66699 -1 9 -1c8.66699 0 16.167 3.16699 22.5 9.5s9.5 13.833 9.5 22.5s-3.16699 16.167 -9.5 22.5s-13.833 9.5 -22.5 9.5s-16.167 -3.16699 -22.5 -9.5s-9.5 -13.833 -9.5 -22.5c0 -5.33301 1.33301 -10.666 4 -15.999l-90 -112h-74v-64h512
v64h-74z" />
    <glyph unicode="&#xe08d;" 
d="M240 448c-66 0 -122.5 -23.5 -169.5 -70.5s-70.5 -103.5 -70.5 -169.5s23.5 -122.5 70.5 -169.5s103.5 -70.5 169.5 -70.5s122.5 23.5 169.5 70.5s70.5 103.5 70.5 169.5s-23.5 122.5 -70.5 169.5s-103.5 70.5 -169.5 70.5zM240 16c-53.333 0 -98.666 18.667 -135.999 56
s-56 82.666 -56 135.999s18.667 98.666 56 135.999s82.666 56 135.999 56s98.666 -18.667 135.999 -56s56 -82.666 56 -135.999s-18.667 -98.666 -56 -135.999s-82.666 -56 -135.999 -56zM256 224v64h64v32h-64v32h-32v-32h-64v-128h64v-64h-64v-32h64v-32h32v32h64v128h-64
zM224 224h-32v64h32v-64zM288 128h-32v64h32v-64z" />
    <glyph unicode="&#xe08e;" 
d="M464 416h-416c-13.333 0 -24.666 -4.66699 -33.999 -14s-14 -20.666 -14 -33.999v-288c0 -13.333 4.66699 -24.666 14 -33.999s20.666 -14 33.999 -14h416c13.333 0 24.666 4.66699 33.999 14s14 20.666 14 33.999v288c0 13.333 -4.66699 24.666 -14 33.999
s-20.666 14 -33.999 14zM48 384h416c4.66699 0 8.5 -1.5 11.5 -4.5s4.5 -6.83301 4.5 -11.5v-48h-448v48c0 4.66699 1.5 8.5 4.5 11.5s6.83301 4.5 11.5 4.5zM464 64h-416c-4.66699 0 -8.5 1.5 -11.5 4.5s-4.5 6.83301 -4.5 11.5v144h448v-144
c0 -4.66699 -1.5 -8.5 -4.5 -11.5s-6.83301 -4.5 -11.5 -4.5zM64 160h32v-64h-32v64zM128 160h32v-64h-32v64zM192 160h32v-64h-32v64z" />
    <glyph unicode="&#xe08f;" 
d="M384 480h-256c-8.66699 0 -16.167 -3.16699 -22.5 -9.5s-9.5 -13.833 -9.5 -22.5v-448c0 -8.66699 3.16699 -16.167 9.5 -22.5s13.833 -9.5 22.5 -9.5h256c8.66699 0 16.167 3.16699 22.5 9.5s9.5 13.833 9.5 22.5v448c0 8.66699 -3.16699 16.167 -9.5 22.5
s-13.833 9.5 -22.5 9.5zM192 0h-64v64h64v-64zM192 96h-64v64h64v-64zM192 192h-64v64h64v-64zM288 0h-64v64h64v-64zM288 96h-64v64h64v-64zM288 192h-64v64h64v-64zM384 0h-64v64h64v-64zM384 96h-64v64h64v-64zM384 192h-64v64h64v-64zM384 288h-256v160h256v-160z" />
    <glyph unicode="&#xe090;" 
d="M192 448h-160c-8.66699 0 -16.167 -3.16699 -22.5 -9.5s-9.5 -13.833 -9.5 -22.5v-160c0 -8.66699 3.16699 -16.167 9.5 -22.5s13.833 -9.5 22.5 -9.5h160c8.66699 0 16.167 3.16699 22.5 9.5s9.5 13.833 9.5 22.5v160c0 8.66699 -3.16699 16.167 -9.5 22.5
s-13.833 9.5 -22.5 9.5zM192 320h-160v32h160v-32zM448 448h-160c-8.66699 0 -16.167 -3.16699 -22.5 -9.5s-9.5 -13.833 -9.5 -22.5v-416c0 -8.66699 3.16699 -16.167 9.5 -22.5s13.833 -9.5 22.5 -9.5h160c8.66699 0 16.167 3.16699 22.5 9.5s9.5 13.833 9.5 22.5v416
c0 8.66699 -3.16699 16.167 -9.5 22.5s-13.833 9.5 -22.5 9.5zM448 160h-160v32h160v-32zM448 256h-160v32h160v-32zM192 192h-160c-8.66699 0 -16.167 -3.16699 -22.5 -9.5s-9.5 -13.833 -9.5 -22.5v-160c0 -8.66699 3.16699 -16.167 9.5 -22.5s13.833 -9.5 22.5 -9.5h160
c8.66699 0 16.167 3.16699 22.5 9.5s9.5 13.833 9.5 22.5v160c0 8.66699 -3.16699 16.167 -9.5 22.5s-13.833 9.5 -22.5 9.5zM192 64h-64v-64h-32v64h-64v32h64v64h32v-64h64v-32z" />
    <glyph unicode="&#xe091;" 
d="M256 480c-70.667 0 -131 -25 -181 -75s-75 -110.333 -75 -181s25 -131 75 -181s110.333 -75 181 -75s131 25 181 75s75 110.333 75 181s-25 131 -75 181s-110.333 75 -181 75zM160 224c0 26.667 9.33301 49.334 28 68.001s41.334 28 68.001 28
s49.334 -9.33301 68.001 -28s28 -41.334 28 -68.001s-9.33301 -49.334 -28 -68.001s-41.334 -28 -68.001 -28s-49.334 9.33301 -68.001 28s-28 41.334 -28 68.001zM463 138l-89 37.002c6.66699 15.333 10 31.666 10 48.999s-3.33301 33.666 -10 48.999l61 25l28 12
c11.333 -27.333 17 -56 17 -86s-5.66699 -58.667 -17 -86zM342 431.002l-37.002 -89c-15.333 6.66699 -31.666 10 -48.999 10s-33.666 -3.33301 -48.999 -10l-17 42l-20 47c27.333 11.333 56 17 86 17s58.667 -5.66699 86 -17zM48.998 310.002l47 -20.002l42 -17
c-6.66699 -15.333 -10 -31.666 -10 -48.999s3.33301 -33.666 10 -48.999l-89 -37c-11.333 27.333 -17 56 -17 86s5.66699 58.667 17 86zM169.998 17l12.002 28l25 61c15.333 -6.66699 31.666 -10 48.999 -10s33.666 3.33301 48.999 10l37 -89v0
c-27.333 -11.333 -56 -17 -86 -17s-58.667 5.66699 -86 17z" />
    <glyph unicode="&#xe092;" 
d="M457 376c12.667 -6.66699 23 -14 31 -22s13.5 -16 16.5 -24s5 -14.667 6 -20s1.5 -11.666 1.5 -18.999v-3c0 -6.66699 -3.33301 -10 -10 -10h-120c-6.66699 0 -10 3.33301 -10 10v11c0 19.333 -14 31.333 -42 36c-20 2.66699 -44.667 4 -74 4v0
c-29.333 0 -54 -1.33301 -74 -4c-28 -4.66699 -42 -16.667 -42 -36v-11c0 -6.66699 -3.33301 -10 -10 -10h-120c-6.66699 0 -10 3.33301 -10 10v3c0 7.33301 0.5 13.666 1.5 18.999s3 12 6 20s8.5 16 16.5 24s18.333 15.333 31 22c46.667 26.667 113.667 40 201 40v0
c87.333 0 154.333 -13.333 201 -40zM256 288c-57.333 0 -96.333 -13 -117 -39c-8 -9.33301 -17.333 -25.666 -28 -48.999s-20 -47.666 -28 -72.999s-11 -47.5 -9 -66.5s10.667 -28.5 26 -28.5h156h156c15.333 0 24 9.5 26 28.5s-1 41.167 -9 66.5s-17.333 49.666 -28 72.999
s-20 39.666 -28 48.999c-20.667 26 -59.667 39 -117 39zM256 96c-18 0 -33.167 6.16699 -45.5 18.5s-18.5 27.5 -18.5 45.5s6.16699 33.167 18.5 45.5s27.5 18.5 45.5 18.5s33.167 -6.16699 45.5 -18.5s18.5 -27.5 18.5 -45.5s-6.16699 -33.167 -18.5 -45.5
s-27.5 -18.5 -45.5 -18.5z" />
    <glyph unicode="&#xe093;" 
d="M352 160c-8 -8 -15.5029 -17.8311 -22.5029 -29.498s-13.333 -20.334 -19 -26.001s-13.167 -8.5 -22.5 -8.5c-10 0 -21 3.5 -33 10.5s-22 14.167 -30 21.5s-19 18 -33 32s-24.667 25 -32 33s-14.5 18 -21.5 30s-10.5 23 -10.5 33c0 9.33301 2.83301 16.833 8.5 22.5
s14.334 12 26.001 19s21.5 14.5 29.5 22.5c14.667 14.667 6.83398 39.667 -23.499 75s-54.5 53 -72.5 53c-9.33301 0 -22 -8 -38 -24s-29.667 -32 -41 -48l-17 -24c0 -32 13.5 -74.833 40.5 -128.5s56.167 -96.167 87.5 -127.5s73.833 -60.5 127.5 -87.5
s96.5 -40.5 128.5 -40.5c7.33301 4.66699 16.333 10.834 27 18.501s24.834 20.167 42.501 37.5s26.5 30.666 26.5 39.999c0 18 -17.667 42.167 -53 72.5s-60.333 38.166 -75 23.499z" />
    <glyph unicode="&#xe094;" 
d="M352 160c14.667 14.667 39.6689 6.83105 75.002 -23.502s53 -54.5 53 -72.5c0 -9.33301 -8 -22 -24 -38s-32 -29.667 -48 -41l-24 -17c-32 0 -74.833 13.5 -128.5 40.5s-96.167 56.167 -127.5 87.5s-60.5 73.833 -87.5 127.5s-40.5 96.5 -40.5 128.5
c4.66699 7.33301 10.834 16.333 18.501 27s20.167 24.834 37.5 42.501s30.666 26.5 39.999 26.5c18 0 42.167 -17.667 72.5 -53s38.166 -60.333 23.499 -75c-8 -8 -17.833 -15.5 -29.5 -22.5s-20.334 -13.333 -26.001 -19s-8.5 -13.167 -8.5 -22.5c0 -10 3.5 -21 10.5 -33
s14.167 -22 21.5 -30s18 -19 32 -33s25 -24.667 33 -32s18 -14.5 30 -21.5s23 -10.5 33 -10.5c9.33301 0 16.833 2.83301 22.5 8.5s12 14.334 19 26.001s14.5 21.5 22.5 29.5zM320.002 351.997c-23.333 0 -41.334 -9.66602 -54.001 -28.999
c8.66699 3.33301 17.334 5 26.001 5c18.667 0 34.667 -6.66699 48 -20s20 -29.333 20 -48c0 -8.66699 -1.66699 -17.334 -5 -26.001c19.333 12.667 29 30.667 29 54c0 18 -6.16699 33.167 -18.5 45.5s-27.5 18.5 -45.5 18.5zM336.001 415.998c-34 0 -62.333 -13 -85 -39
c18 10 37 15 57 15c32 0 59.333 -11.333 82 -34s34 -50 34 -82c0 -20 -5 -39 -15 -57c26 22.667 39 51 39 85c0 30.667 -11 57 -33 79s-48.333 33 -79 33zM368.001 479.998c-41.333 0 -76.333 -15.333 -105 -46c23.333 14.667 49 22 77 22c40.667 0 75.5 -14.5 104.5 -43.5
s43.5 -63.833 43.5 -104.5c0 -28 -7.33301 -53.667 -22 -77c30.667 28 46 63 46 105c0 40 -14 74 -42 102s-62 42 -102 42z" />
    <glyph unicode="&#xe095;" 
d="M352 160c14.667 14.667 39.6689 6.83105 75.002 -23.502s53 -54.5 53 -72.5c0 -9.33301 -8 -22 -24 -38s-32 -29.667 -48 -41l-24 -17c-32 0 -74.833 13.5 -128.5 40.5s-96.167 56.167 -127.5 87.5s-60.5 73.833 -87.5 127.5s-40.5 96.5 -40.5 128.5
c4.66699 7.33301 10.834 16.333 18.501 27s20.167 24.834 37.5 42.501s30.666 26.5 39.999 26.5c18 0 42.167 -17.667 72.5 -53s38.166 -60.333 23.499 -75c-8 -8 -17.833 -15.5 -29.5 -22.5s-20.334 -13.333 -26.001 -19s-8.5 -13.167 -8.5 -22.5c0 -10 3.5 -21 10.5 -33
s14.167 -22 21.5 -30s18 -19 32 -33s25 -24.667 33 -32s18 -14.5 30 -21.5s23 -10.5 33 -10.5c9.33301 0 16.833 2.83301 22.5 8.5s12 14.334 19 26.001s14.5 21.5 22.5 29.5zM368.002 479.997c-40 0 -74 -14 -102 -42s-42 -62 -42 -102s14 -74 42 -102s62 -42 102 -42
s74 14 102 42s42 62 42 102s-14 74 -42 102s-62 42 -102 42zM384.002 319.997v-64h-32v64h-64v32h64v64h32v-64h64v-32h-64z" />
    <glyph unicode="&#xe096;" 
d="M352 160c14.667 14.667 39.6689 6.83105 75.002 -23.502s53 -54.5 53 -72.5c0 -9.33301 -8 -22 -24 -38s-32 -29.667 -48 -41l-24 -17c-32 0 -74.833 13.5 -128.5 40.5s-96.167 56.167 -127.5 87.5s-60.5 73.833 -87.5 127.5s-40.5 96.5 -40.5 128.5
c4.66699 7.33301 10.834 16.333 18.501 27s20.167 24.834 37.5 42.501s30.666 26.5 39.999 26.5c18 0 42.167 -17.667 72.5 -53s38.166 -60.333 23.499 -75c-8 -8 -17.833 -15.5 -29.5 -22.5s-20.334 -13.333 -26.001 -19s-8.5 -13.167 -8.5 -22.5c0 -10 3.5 -21 10.5 -33
s14.167 -22 21.5 -30s18 -19 32 -33s25 -24.667 33 -32s18 -14.5 30 -21.5s23 -10.5 33 -10.5c9.33301 0 16.833 2.83301 22.5 8.5s12 14.334 19 26.001s14.5 21.5 22.5 29.5zM368.002 479.997c-40 0 -74 -14 -102 -42s-42 -62 -42 -102s14 -74 42 -102s62 -42 102 -42
s74 14 102 42s42 62 42 102s-14 74 -42 102s-62 42 -102 42zM448.002 319.997h-160v32h160v-32z" />
    <glyph unicode="&#xe097;" 
d="M352 160c14.667 14.667 39.6689 6.83105 75.002 -23.502s53 -54.5 53 -72.5c0 -9.33301 -8 -22 -24 -38s-32 -29.667 -48 -41l-24 -17c-32 0 -74.833 13.5 -128.5 40.5s-96.167 56.167 -127.5 87.5s-60.5 73.833 -87.5 127.5s-40.5 96.5 -40.5 128.5
c4.66699 7.33301 10.834 16.333 18.501 27s20.167 24.834 37.5 42.501s30.666 26.5 39.999 26.5c18 0 42.167 -17.667 72.5 -53s38.166 -60.333 23.499 -75c-8 -8 -17.833 -15.5 -29.5 -22.5s-20.334 -13.333 -26.001 -19s-8.5 -13.167 -8.5 -22.5c0 -10 3.5 -21 10.5 -33
s14.167 -22 21.5 -30s18 -19 32 -33s25 -24.667 33 -32s18 -14.5 30 -21.5s23 -10.5 33 -10.5c9.33301 0 16.833 2.83301 22.5 8.5s12 14.334 19 26.001s14.5 21.5 22.5 29.5zM480.002 319.997h-64v-64h-64v64h-64v64h64v64h64v-64h64v-64z" />
    <glyph unicode="&#xe098;" 
d="M352 160c14.667 14.667 39.6689 6.83105 75.002 -23.502s53 -54.5 53 -72.5c0 -9.33301 -8 -22 -24 -38s-32 -29.667 -48 -41l-24 -17c-32 0 -74.833 13.5 -128.5 40.5s-96.167 56.167 -127.5 87.5s-60.5 73.833 -87.5 127.5s-40.5 96.5 -40.5 128.5
c4.66699 7.33301 10.834 16.333 18.501 27s20.167 24.834 37.5 42.501s30.666 26.5 39.999 26.5c18 0 42.167 -17.667 72.5 -53s38.166 -60.333 23.499 -75c-8 -8 -17.833 -15.5 -29.5 -22.5s-20.334 -13.333 -26.001 -19s-8.5 -13.167 -8.5 -22.5c0 -10 3.5 -21 10.5 -33
s14.167 -22 21.5 -30s18 -19 32 -33s25 -24.667 33 -32s18 -14.5 30 -21.5s23 -10.5 33 -10.5c9.33301 0 16.833 2.83301 22.5 8.5s12 14.334 19 26.001s14.5 21.5 22.5 29.5zM288.002 383.997h192v-64h-192v64zM288.002 383.997h192v-64h-192v64z" />
    <glyph unicode="&#xe099;" 
d="M352 160c14.667 14.667 39.6689 6.83105 75.002 -23.502s53 -54.5 53 -72.5c0 -9.33301 -8 -22 -24 -38s-32 -29.667 -48 -41l-24 -17c-32 0 -74.833 13.5 -128.5 40.5s-96.167 56.167 -127.5 87.5s-60.5 73.833 -87.5 127.5s-40.5 96.5 -40.5 128.5
c4.66699 7.33301 10.834 16.333 18.501 27s20.167 24.834 37.5 42.501s30.666 26.5 39.999 26.5c18 0 42.167 -17.667 72.5 -53s38.166 -60.333 23.499 -75c-8 -8 -17.833 -15.5 -29.5 -22.5s-20.334 -13.333 -26.001 -19s-8.5 -13.167 -8.5 -22.5c0 -10 3.5 -21 10.5 -33
s14.167 -22 21.5 -30s18 -19 32 -33s25 -24.667 33 -32s18 -14.5 30 -21.5s23 -10.5 33 -10.5c9.33301 0 16.833 2.83301 22.5 8.5s12 14.334 19 26.001s14.5 21.5 22.5 29.5zM256.002 223.997v176l65 -65l82 81h45v-45l-81 -82l65 -65h-176z" />
    <glyph unicode="&#xe09a;" 
d="M352 160c14.667 14.667 39.6689 6.83105 75.002 -23.502s53 -54.5 53 -72.5c0 -9.33301 -8 -22 -24 -38s-32 -29.667 -48 -41l-24 -17c-32 0 -74.833 13.5 -128.5 40.5s-96.167 56.167 -127.5 87.5s-60.5 73.833 -87.5 127.5s-40.5 96.5 -40.5 128.5
c4.66699 7.33301 10.834 16.333 18.501 27s20.167 24.834 37.5 42.501s30.666 26.5 39.999 26.5c18 0 42.167 -17.667 72.5 -53s38.166 -60.333 23.499 -75c-8 -8 -17.833 -15.5 -29.5 -22.5s-20.334 -13.333 -26.001 -19s-8.5 -13.167 -8.5 -22.5c0 -10 3.5 -21 10.5 -33
s14.167 -22 21.5 -30s18 -19 32 -33s25 -24.667 33 -32s18 -14.5 30 -21.5s23 -10.5 33 -10.5c9.33301 0 16.833 2.83301 22.5 8.5s12 14.334 19 26.001s14.5 21.5 22.5 29.5zM448.002 415.997v-176l-65 65l-82 -81h-45v45l81 82l-65 65h176z" />
    <glyph unicode="&#xe09b;" 
d="M404 -32l-6 -0.000976562c-34.667 0 -80 14 -136 42c-54.667 27.333 -98.167 57.166 -130.5 89.499s-62.166 75.833 -89.499 130.5c-28 56 -42 101.333 -42 136v6l3 5c11.333 16 23.666 32.333 36.999 49c30 36 54.667 54 74 54c17.333 0 39 -12 65 -36
c24 -22 40.667 -44.333 50 -67c10 -24 8 -43 -6 -57c-9.33301 -9.33301 -22 -19 -38 -29c-8.66699 -5.33301 -14 -9 -16 -11s-3 -5 -3 -9c0 -7.33301 3.16699 -16 9.5 -26s12.666 -18.333 18.999 -25l28.5 -29l29 -28.5c6.66699 -6.33301 15 -12.666 25 -18.999
s18.667 -9.5 26 -9.5c4 0 7 1 9 3s5.66699 7.33301 11 16c10 16 19.667 28.667 29 38c8 8 18.333 12 31 12s27.334 -5 44.001 -15c12.667 -8 25.667 -18.333 39 -31c30.667 -29.333 46 -54.333 46 -75c0 -19.333 -18 -44 -54 -74c-16.667 -13.333 -33 -25.666 -49 -36.999z
M40 359.999c2 -28.667 14.6719 -66.0039 38.0049 -112.004c25.333 -50.667 52.666 -90.667 81.999 -120s69.333 -56.666 120 -81.999c46 -23.333 83.333 -36 112 -38c14 10 26.667 19.667 38 29c25.333 21.333 39.333 36.666 42 45.999c-2 10.667 -13.667 26.334 -35 47.001
c-23.333 22 -41.333 33 -54 33h-3c-6.66699 -7.33301 -14.334 -17.666 -23.001 -30.999c-4.66699 -8 -8.66699 -14.167 -12 -18.5s-8.83301 -8.66602 -16.5 -12.999s-16.167 -6.5 -25.5 -6.5c-12 0 -25 3.83301 -39 11.5s-25.333 15.334 -34 23.001s-20.5 19 -35.5 34
s-26.333 26.833 -34 35.5s-15.334 20 -23.001 34s-11.5 27 -11.5 39c0 9.33301 2.16699 17.833 6.5 25.5s8.66602 13.167 12.999 16.5s10.5 7.33301 18.5 12c13.333 8.66699 23.666 16.334 30.999 23.001c1.33301 1.33301 0.666016 5.33301 -2.00098 12
c-5.33301 16 -18.333 33.333 -39 52c-17.333 17.333 -30.333 26.666 -39 27.999c-9.33301 -2.66699 -24.666 -16.667 -45.999 -42z" />
    <glyph unicode="&#xe09c;" 
d="M404 -32l-6 -0.000976562c-34.667 0 -80 14 -136 42c-54.667 27.333 -98.167 57.166 -130.5 89.499s-62.166 75.833 -89.499 130.5c-28 56 -42 101.333 -42 136v6l3 5c11.333 16 23.666 32.333 36.999 49c30 36 54.667 54 74 54c17.333 0 39 -12 65 -36
c24 -22 40.667 -44.333 50 -67c10 -24 8 -43 -6 -57c-9.33301 -9.33301 -22 -19 -38 -29c-8.66699 -5.33301 -14 -9 -16 -11s-3 -5 -3 -9c0 -7.33301 3.16699 -16 9.5 -26s12.666 -18.333 18.999 -25l28.5 -29l29 -28.5c6.66699 -6.33301 15 -12.666 25 -18.999
s18.667 -9.5 26 -9.5c4 0 7 1 9 3s5.66699 7.33301 11 16c10 16 19.667 28.667 29 38c8 8 18.333 12 31 12s27.334 -5 44.001 -15c12.667 -8 25.667 -18.333 39 -31c30.667 -29.333 46 -54.333 46 -75c0 -19.333 -18 -44 -54 -74c-16.667 -13.333 -33 -25.666 -49 -36.999z
M40 359.999c2 -28.667 14.6719 -66.0039 38.0049 -112.004c25.333 -50.667 52.666 -90.667 81.999 -120s69.333 -56.666 120 -81.999c46 -23.333 83.333 -36 112 -38c14 10 26.667 19.667 38 29c25.333 21.333 39.333 36.666 42 45.999c-2 10.667 -13.667 26.334 -35 47.001
c-23.333 22 -41.333 33 -54 33h-3c-6.66699 -7.33301 -14.334 -17.666 -23.001 -30.999c-4.66699 -8 -8.66699 -14.167 -12 -18.5s-8.83301 -8.66602 -16.5 -12.999s-16.167 -6.5 -25.5 -6.5c-12 0 -25 3.83301 -39 11.5s-25.333 15.334 -34 23.001s-20.5 19 -35.5 34
s-26.333 26.833 -34 35.5s-15.334 20 -23.001 34s-11.5 27 -11.5 39c0 9.33301 2.16699 17.833 6.5 25.5s8.66602 13.167 12.999 16.5s10.5 7.33301 18.5 12c13.333 8.66699 23.666 16.334 30.999 23.001c1.33301 1.33301 0.666016 5.33301 -2.00098 12
c-5.33301 16 -18.333 33.333 -39 52c-17.333 17.333 -30.333 26.666 -39 27.999c-9.33301 -2.66699 -24.666 -16.667 -45.999 -42zM320.005 351.995c-23.333 0 -41.334 -9.66602 -54.001 -28.999c8.66699 3.33301 17.334 5 26.001 5c18.667 0 34.667 -6.66699 48 -20
s20 -29.333 20 -48c0 -8.66699 -1.66699 -17.334 -5 -26.001c19.333 12.667 29 30.667 29 54c0 18 -6.16699 33.167 -18.5 45.5s-27.5 18.5 -45.5 18.5zM336.004 415.996c-34 0 -62.333 -13 -85 -39c18 10 37 15 57 15c32 0 59.333 -11.333 82 -34s34 -50 34 -82
c0 -20 -5 -39 -15 -57c26 22.667 39 51 39 85c0 30.667 -11 57 -33 79s-48.333 33 -79 33zM368.004 479.996c-41.333 0 -76.333 -15.333 -105 -46c23.333 14.667 49 22 77 22c40.667 0 75.5 -14.5 104.5 -43.5s43.5 -63.833 43.5 -104.5c0 -28 -7.33301 -53.667 -22 -77
c30.667 28 46 63 46 105c0 40 -14 74 -42 102s-62 42 -102 42z" />
    <glyph unicode="&#xe09d;" 
d="M509 192c6 -42 3.99512 -68.667 -6.00488 -80c-7.33301 -8 -23.166 -13.167 -47.499 -15.5s-47.666 0 -69.999 7s-33.5 17.833 -33.5 32.5c0 4.66699 1 10.167 3 16.5s3.83301 11.5 5.5 15.5s2 9 1 15s-3.83301 11.667 -8.5 17
c-9.33301 10.667 -21.333 17.334 -36 20.001s-35 4 -61 4c-17.333 0 -30.666 -0.333008 -39.999 -1s-19.5 -2.83398 -30.5 -6.50098s-19.833 -9.16699 -26.5 -16.5c-4.66699 -5.33301 -7.5 -11 -8.5 -17s-0.666992 -11 1 -15s3.5 -9.16699 5.5 -15.5s3 -11.833 3 -16.5
c0 -14.667 -11.167 -25.5 -33.5 -32.5s-45.666 -9.33301 -69.999 -7s-40.166 7.5 -47.499 15.5c-10 11.333 -12 38 -6 80c4 22 16 43.333 36 64c45.333 42 117 63.333 215 64h1h1h1h1c98 -0.666992 169.667 -22 215 -64c20 -20.667 32 -42 36 -64z" />
    <glyph unicode="&#xe09e;" 
d="M424 91c38 0 63.0029 6.99805 75.0029 20.998c8 9.33301 12.333 24 13 44c0 12.667 -1 27.334 -3 44.001v1c-4 24 -17 46.667 -39 68v1c-42.667 38.667 -107 59.334 -193 62.001v1h-19h-2h-2h-19v-1c-86 -2.66699 -150.333 -23.334 -193 -62.001v-1
c-22 -21.333 -35 -44 -39 -68v-1c-2 -16.667 -3 -31.334 -3 -44.001c0.666992 -20 5 -34.667 13 -44c12 -14 37 -21 75 -21c23.333 0 43.666 3.33301 60.999 10c24.667 10 37 25 37 45c0 7.33301 -2 16.666 -6 27.999c-2.66699 8 -2.33398 14 0.999023 18
c6 6.66699 14.833 10.834 26.5 12.501s27.834 2.5 48.501 2.5c14 0 24.667 -0.166992 32 -0.5s15.333 -1.66602 24 -3.99902s15 -5.83301 19 -10.5c3.33301 -4 3.66602 -10 0.999023 -18c-4 -11.333 -6 -20.666 -6 -27.999c0 -20 12.333 -35 37 -45
c17.333 -6.66699 37.666 -10 60.999 -10zM256.003 244.998c-17.333 0 -30.6719 -0.166992 -40.0049 -0.5s-20.333 -2.83301 -33 -7.5s-23 -11.334 -31 -20.001c-13.333 -14.667 -16 -33.334 -8 -56.001c2.66699 -6.66699 4 -11.667 4 -15s-5.66699 -7 -17 -11
s-25.666 -6 -42.999 -6c-24 0 -39.333 2.66699 -46 8c-5.33301 7.33301 -5.66602 26.333 -0.999023 57c2.66699 16 11.667 32 27 48c38.667 34.667 100.667 52.334 186 53.001h2v0h2c85.333 -0.666992 147.333 -18.334 186 -53.001c15.333 -16 24.333 -32 27 -48
c4.66699 -30.667 4.33398 -49.667 -0.999023 -57c-6.66699 -5.33301 -22 -8 -46 -8c-17.333 0 -31.666 2 -42.999 6s-17 7.66699 -17 11s1.33301 8.33301 4 15c8 22.667 5.33301 41.334 -8 56.001c-8 8.66699 -18.333 15.334 -31 20.001s-23.667 7.16699 -33 7.5
s-22.666 0.5 -39.999 0.5z" />
    <glyph unicode="&#xe09f;" 
d="M480 352c8.66699 0 16.167 3.16699 22.5 9.5s9.5 13.833 9.5 22.5v64h-64v32h-416c-8.66699 0 -16.167 -3.16699 -22.5 -9.5s-9.5 -13.833 -9.5 -22.5v-448c0 -8.66699 3.16699 -16.167 9.5 -22.5s13.833 -9.5 22.5 -9.5h416v128h32c8.66699 0 16.167 3.16699 22.5 9.5
s9.5 13.833 9.5 22.5v64h-64v32h32c8.66699 0 16.167 3.16699 22.5 9.5s9.5 13.833 9.5 22.5v64h-64v32h32zM288 352c17.333 0 32.333 -6.33301 45 -19s19 -27.667 19 -45s-6.33301 -32.333 -19 -45s-27.667 -19 -45 -19s-32.333 6.33301 -45 19s-19 27.667 -19 45
s6.33301 32.333 19 45s27.667 19 45 19zM128 0h-32v448h32v-448zM384 96h-192v32c0 18 6.16699 33.167 18.5 45.5s27.5 18.5 45.5 18.5h64c18 0 33.167 -6.16699 45.5 -18.5s18.5 -27.5 18.5 -45.5v-32z" />
    <glyph unicode="&#xe0a0;" 
d="M449 448l-385 0.000976562v-64h-47c-4.66699 0 -8.66699 -1.5 -12 -4.5s-5 -6.5 -5 -10.5v-32c-0 -4.66699 1.83301 -8.66699 5.5 -12s7.5 -5 11.5 -5h47v-32h-47c-4.66699 0 -8.66699 -1.5 -12 -4.5s-5 -6.5 -5 -10.5v-32c-0 -4.66699 1.83301 -8.66699 5.5 -12
s7.5 -5 11.5 -5h47v-32h-47c-4.66699 0 -8.66699 -1.5 -12 -4.5s-5 -6.5 -5 -10.5v-32c-0 -4.66699 1.83301 -8.66699 5.5 -12s7.5 -5 11.5 -5h47v-32h-47c-4.66699 0 -8.66699 -1.5 -12 -4.5s-5 -6.5 -5 -10.5v-32c-0 -4.66699 1.83301 -8.66699 5.5 -12s7.5 -5 11.5 -5h47
v-64h385c8.66699 0 16 3.16699 22 9.5s9 14.166 9 23.499v416c0 8.66699 -3 16 -9 22s-13.333 9 -22 9zM160 0.000976562h-64.0039v32h17c4.66699 0 8.33398 1.66699 11.001 5s4 7.33301 4 12v32c0 10 -5 15 -15 15h-17v32h17c4.66699 0 8.33398 1.66699 11.001 5
s4 7.33301 4 12v32c0 10 -5 15 -15 15h-17v32h17c4.66699 0 8.33398 1.66699 11.001 5s4 7.33301 4 12v32c0 10 -5 15 -15 15h-17v32h17c4.66699 0 8.33398 1.66699 11.001 5s4 7.33301 4 12v32c0 10 -5 15 -15 15h-17v32h64v-416z" />
    <glyph unicode="&#xe0a1;" 
d="M480 416h-448c-8.66699 0 -16.167 -3.16699 -22.5 -9.5s-9.5 -13.833 -9.5 -22.5v-320c0 -8.66699 3.16699 -16.167 9.5 -22.5s13.833 -9.5 22.5 -9.5h448c8.66699 0 16.167 3.16699 22.5 9.5s9.5 13.833 9.5 22.5v320c0 8.66699 -3.16699 16.167 -9.5 22.5
s-13.833 9.5 -22.5 9.5zM448 352v-23l-192 -113l-192 113v23h384zM64 96v177l192 -113l192 113v-177h-384z" />
    <glyph unicode="&#xe0a2;" horiz-adv-x="640" 
d="M608 352h-416l208 -166zM400 134l-26 21l-172 -91h395l-171 91zM460 183l180 -96v239zM160 326v-239l180 96zM128 288l-128 8v16l128 8v-32zM128 192l-128 8v16l128 8v-32zM128 96l-128 8v16l128 8v-32z" />
    <glyph unicode="&#xe0a3;" 
d="M464 416h-416c-13.333 0 -24.666 -4.66699 -33.999 -14s-14 -20.666 -14 -33.999v-320c0 -13.333 4.66699 -24.666 14 -33.999s20.666 -14 33.999 -14h416c13.333 0 24.666 4.66699 33.999 14s14 20.666 14 33.999v320c0 13.333 -4.66699 24.666 -14 33.999
s-20.666 14 -33.999 14zM199 205l-135 -106v251zM88 352h336l-168 -126zM205 199l51 -55l51 55l106 -135h-314zM313 205l135 145v-251z" />
    <glyph unicode="&#xe0a4;" 
d="M272 480l-48 -48l48 -48l-112 -128h-112l88 -88l-136 -180v-20h20l180 136l88 -88v112l128 112l48 -48l48 48zM224 208l-32 32l112 112l32 -32z" />
    <glyph unicode="&#xe0a5;" 
d="M256 480c-44 0 -81.667 -15.668 -113 -47.001s-47 -69 -47 -113c0 -36.667 8.33301 -77.167 25 -121.5s35 -82.666 55 -114.999s38.333 -59.5 55 -81.5l25 -34c6.66699 8 15.5 19.833 26.5 35.5s28.167 41.667 51.5 78s42.833 76 58.5 119s23.5 82.833 23.5 119.5
c0 44 -15.667 81.667 -47 113s-69 47 -113 47zM256 223.999c-26.667 0 -49.334 9.33301 -68.001 28s-28 41.334 -28 68.001s9.33301 49.334 28 68.001s41.334 28 68.001 28s49.334 -9.33301 68.001 -28s28 -41.334 28 -68.001s-9.33301 -49.334 -28 -68.001
s-41.334 -28 -68.001 -28z" />
    <glyph unicode="&#xe0a6;" 
d="M256 480c-44 0 -81.667 -15.667 -113 -47s-47 -69 -47 -113c0 -36.667 8.33301 -73.834 25 -111.501s35 -68.667 55 -93s38.333 -44.166 55 -59.499l25 -24c6.66699 5.33301 15.5 13.5 26.5 24.5s28.167 30 51.5 57s42.833 59 58.5 96s23.5 73.833 23.5 110.5
c0 44 -15.667 81.667 -47 113s-69 47 -113 47zM256 224c-26.667 0 -49.334 9.33301 -68.001 28s-28 41.334 -28 68.001s9.33301 49.334 28 68.001s41.334 28 68.001 28s49.334 -9.33301 68.001 -28s28 -41.334 28 -68.001s-9.33301 -49.334 -28 -68.001
s-41.334 -28 -68.001 -28zM393 131c-6.66699 -10.667 -13.998 -21 -21.998 -31l4 -2c11.333 -6 20 -12 26 -18s9 -11.333 9 -16s-3 -10 -9 -16s-14.667 -12 -26 -18c-32 -16 -71.667 -24 -119 -24s-87 8 -119 24c-11.333 6 -20 12 -26 18s-9 11.333 -9 16s3 10 9 16
s14.667 12 26 18l4 2c-8 10 -15.333 20.333 -22 31c-36.667 -18.667 -55 -41 -55 -67c0 -26.667 18.667 -49.334 56 -68.001s82.666 -28 135.999 -28s98.666 9.33301 135.999 28s56 41.334 56 68.001c0 26 -18.333 48.333 -55 67z" />
    <glyph unicode="&#xe0a7;" 
d="M256 480c-44 0 -81.667 -15.668 -113 -47.001s-47 -69 -47 -113c0 -36.667 8.33301 -77.167 25 -121.5s35 -82.666 55 -114.999s38.333 -59.5 55 -81.5l25 -34c6.66699 8 15.5 19.833 26.5 35.5s28.167 41.667 51.5 78s42.833 76 58.5 119s23.5 82.833 23.5 119.5
c0 44 -15.667 81.667 -47 113s-69 47 -113 47zM256 221.999c-27.333 0 -50.5 9.5 -69.5 28.5s-28.5 42.167 -28.5 69.5s9.5 50.5 28.5 69.5s42.167 28.5 69.5 28.5s50.5 -9.5 69.5 -28.5s28.5 -42.167 28.5 -69.5s-9.5 -50.5 -28.5 -69.5s-42.167 -28.5 -69.5 -28.5z
M194 319.999c0 17.333 6 32 18 44s26.667 18 44 18s32 -6 44 -18s18 -26.667 18 -44s-6 -32 -18 -44s-26.667 -18 -44 -18s-32 6 -44 18s-18 26.667 -18 44z" />
    </font>
</defs>
</svg>
